<mxfile host="app.diagrams.net" modified="2022-04-25T01:15:24.395Z" agent="5.0 (Windows)" etag="EfINAPhuyWrGZwms-MI4" version="17.4.6" type="github" pages="7">
  <diagram id="O4Zk2t4vwflLh02XBHG_" name="Login">
    <mxGraphModel dx="2083" dy="800" grid="1" gridSize="10" guides="1" tooltips="1" connect="1" arrows="1" fold="1" page="1" pageScale="1" pageWidth="827" pageHeight="1169" math="0" shadow="0">
      <root>
        <mxCell id="0" />
        <mxCell id="1" parent="0" />
        <mxCell id="4YoxSeCsEzGUcR6Upnf4-1" value="" style="strokeWidth=1;shadow=0;dashed=0;align=center;html=1;shape=mxgraph.mockup.containers.browserWindow;rSize=0;strokeColor=#666666;strokeColor2=#008cff;strokeColor3=#c4c4c4;mainText=,;recursiveResize=0;" vertex="1" parent="1">
          <mxGeometry x="-813" y="60" width="800" height="780" as="geometry" />
        </mxCell>
        <mxCell id="4YoxSeCsEzGUcR6Upnf4-2" value="Page 1" style="strokeWidth=1;shadow=0;dashed=0;align=center;html=1;shape=mxgraph.mockup.containers.anchor;fontSize=17;fontColor=#666666;align=left;" vertex="1" parent="4YoxSeCsEzGUcR6Upnf4-1">
          <mxGeometry x="60" y="12" width="110" height="26" as="geometry" />
        </mxCell>
        <mxCell id="4YoxSeCsEzGUcR6Upnf4-3" value="https://www.Acces.login" style="strokeWidth=1;shadow=0;dashed=0;align=center;html=1;shape=mxgraph.mockup.containers.anchor;rSize=0;fontSize=17;fontColor=#666666;align=left;" vertex="1" parent="4YoxSeCsEzGUcR6Upnf4-1">
          <mxGeometry x="130" y="60" width="250" height="26" as="geometry" />
        </mxCell>
        <mxCell id="dwyUfn1rXwYeHExcbxNs-13" value="Image" style="html=1;shadow=0;dashed=0;shape=mxgraph.bootstrap.rrect;rSize=5;strokeColor=#2D3338;html=1;whiteSpace=wrap;fillColor=#868E96;fontColor=#ffffff;verticalAlign=middle;align=center;spacing=20;fontSize=60;" parent="4YoxSeCsEzGUcR6Upnf4-1" vertex="1">
          <mxGeometry y="170" width="800" height="130" as="geometry" />
        </mxCell>
        <mxCell id="dwyUfn1rXwYeHExcbxNs-14" value="&lt;span style=&quot;font-size: 20px&quot;&gt;&lt;b&gt;Nombre de&amp;nbsp;compañía.&lt;/b&gt;&lt;/span&gt;&lt;br&gt;&quot;Lema &quot;&lt;br&gt;" style="fillColor=none;strokeColor=none;fontColor=#ffffff;html=1;verticalAlign=top;align=left;spacing=20;fontSize=14;" parent="dwyUfn1rXwYeHExcbxNs-13" vertex="1">
          <mxGeometry width="800" height="60" relative="1" as="geometry">
            <mxPoint x="10" y="-20" as="offset" />
          </mxGeometry>
        </mxCell>
        <mxCell id="5bFV1oHO88_Rcz_ryBSo-1" value="" style="html=1;shadow=0;dashed=0;fillColor=#E3F3FD;strokeColor=none;fontSize=16;fontColor=#161819;align=left;spacing=15;" parent="dwyUfn1rXwYeHExcbxNs-13" vertex="1">
          <mxGeometry y="-60" width="800" height="60" as="geometry" />
        </mxCell>
        <mxCell id="dwyUfn1rXwYeHExcbxNs-41" value="" style="html=1;shadow=0;dashed=0;shape=mxgraph.bootstrap.rrect;rSize=5;fillColor=#ffffff;strokeColor=#999999;" parent="4YoxSeCsEzGUcR6Upnf4-1" vertex="1">
          <mxGeometry x="240" y="310" width="300" height="440" as="geometry" />
        </mxCell>
        <mxCell id="dwyUfn1rXwYeHExcbxNs-42" value="Email address" style="fillColor=none;strokeColor=none;align=left;spacing=20;fontSize=14;" parent="dwyUfn1rXwYeHExcbxNs-41" vertex="1">
          <mxGeometry width="220" height="40" relative="1" as="geometry">
            <mxPoint x="35" y="10" as="offset" />
          </mxGeometry>
        </mxCell>
        <mxCell id="dwyUfn1rXwYeHExcbxNs-43" value="email@example.com" style="html=1;shadow=0;dashed=0;shape=mxgraph.bootstrap.rrect;rSize=5;fillColor=none;strokeColor=#999999;align=left;spacing=15;fontSize=14;fontColor=#6C767D;" parent="dwyUfn1rXwYeHExcbxNs-41" vertex="1">
          <mxGeometry width="180" height="30" relative="1" as="geometry">
            <mxPoint x="55" y="50" as="offset" />
          </mxGeometry>
        </mxCell>
        <mxCell id="dwyUfn1rXwYeHExcbxNs-44" value="Password" style="fillColor=none;strokeColor=none;align=left;spacing=20;fontSize=14;" parent="dwyUfn1rXwYeHExcbxNs-41" vertex="1">
          <mxGeometry width="220" height="40" relative="1" as="geometry">
            <mxPoint x="35" y="90" as="offset" />
          </mxGeometry>
        </mxCell>
        <mxCell id="dwyUfn1rXwYeHExcbxNs-45" value="Password" style="html=1;shadow=0;dashed=0;shape=mxgraph.bootstrap.rrect;rSize=5;fillColor=none;strokeColor=#999999;align=left;spacing=15;fontSize=14;fontColor=#6C767D;" parent="dwyUfn1rXwYeHExcbxNs-41" vertex="1">
          <mxGeometry width="180" height="30" relative="1" as="geometry">
            <mxPoint x="55" y="130" as="offset" />
          </mxGeometry>
        </mxCell>
        <mxCell id="dwyUfn1rXwYeHExcbxNs-48" value="" style="shape=line;strokeColor=#999999;perimeter=none;resizeWidth=1;" parent="dwyUfn1rXwYeHExcbxNs-41" vertex="1">
          <mxGeometry width="300" height="10" relative="1" as="geometry">
            <mxPoint y="340" as="offset" />
          </mxGeometry>
        </mxCell>
        <mxCell id="dwyUfn1rXwYeHExcbxNs-49" value="&lt;font color=&quot;#3399FF&quot;&gt;New around here? request an appointment&lt;/font&gt;&lt;br&gt;&lt;br&gt;&lt;font color=&quot;#3399FF&quot;&gt;Forgot password?&lt;/font&gt;" style="html=1;fillColor=none;strokeColor=none;align=left;spacing=20;fontSize=14;" parent="dwyUfn1rXwYeHExcbxNs-41" vertex="1">
          <mxGeometry width="220" height="60" relative="1" as="geometry">
            <mxPoint x="10" y="360" as="offset" />
          </mxGeometry>
        </mxCell>
        <mxCell id="gMaiqfl1Hfke0txWbbAa-1" value="fG2yQ23" style="strokeWidth=1;shadow=0;dashed=0;align=center;html=1;shape=mxgraph.mockup.text.captcha;fontColor=#666666;fontSize=25;strokeColor=#666666;mainText=" vertex="1" parent="dwyUfn1rXwYeHExcbxNs-41">
          <mxGeometry x="70" y="180" width="150" height="50" as="geometry" />
        </mxCell>
        <mxCell id="gMaiqfl1Hfke0txWbbAa-2" value="" style="strokeWidth=1;shadow=0;dashed=0;align=center;html=1;shape=mxgraph.mockup.text.textBox;fontColor=#666666;align=left;fontSize=17;spacingLeft=4;spacingTop=-3;strokeColor=#666666;mainText=" vertex="1" parent="dwyUfn1rXwYeHExcbxNs-41">
          <mxGeometry x="70" y="240" width="150" height="30" as="geometry" />
        </mxCell>
        <mxCell id="dwyUfn1rXwYeHExcbxNs-47" value="Sign in" style="html=1;shadow=0;dashed=0;shape=mxgraph.bootstrap.rrect;rSize=5;fillColor=#0085FC;strokeColor=none;align=center;fontSize=14;fontColor=#FFFFFF;" parent="dwyUfn1rXwYeHExcbxNs-41" vertex="1">
          <mxGeometry width="70" height="40" relative="1" as="geometry">
            <mxPoint x="110" y="300" as="offset" />
          </mxGeometry>
        </mxCell>
        <mxCell id="gMaiqfl1Hfke0txWbbAa-3" value="" style="shape=image;html=1;verticalAlign=top;verticalLabelPosition=bottom;labelBackgroundColor=#ffffff;imageAspect=0;aspect=fixed;image=https://cdn3.iconfinder.com/data/icons/arrows-set-12/512/reset-128.png;fontColor=#3399FF;" vertex="1" parent="dwyUfn1rXwYeHExcbxNs-41">
          <mxGeometry x="240" y="185" width="40" height="40" as="geometry" />
        </mxCell>
      </root>
    </mxGraphModel>
  </diagram>
  <diagram id="mLZccwXbACtOU0Xti_vQ" name="Recover">
    <mxGraphModel dx="942" dy="600" grid="1" gridSize="10" guides="1" tooltips="1" connect="1" arrows="1" fold="1" page="1" pageScale="1" pageWidth="827" pageHeight="1169" math="0" shadow="0">
      <root>
        <mxCell id="0" />
        <mxCell id="1" parent="0" />
        <mxCell id="fVwniOZ6-7kQJx1FWxja-1" value="" style="strokeWidth=1;shadow=0;dashed=0;align=center;html=1;shape=mxgraph.mockup.containers.browserWindow;rSize=0;strokeColor=#666666;strokeColor2=#008cff;strokeColor3=#c4c4c4;mainText=,;recursiveResize=0;" vertex="1" parent="1">
          <mxGeometry x="14" y="20" width="800" height="550" as="geometry" />
        </mxCell>
        <mxCell id="fVwniOZ6-7kQJx1FWxja-2" value="Page 2" style="strokeWidth=1;shadow=0;dashed=0;align=center;html=1;shape=mxgraph.mockup.containers.anchor;fontSize=17;fontColor=#666666;align=left;" vertex="1" parent="fVwniOZ6-7kQJx1FWxja-1">
          <mxGeometry x="60" y="12" width="110" height="26" as="geometry" />
        </mxCell>
        <mxCell id="fVwniOZ6-7kQJx1FWxja-3" value="https://www.Acces/recover" style="strokeWidth=1;shadow=0;dashed=0;align=center;html=1;shape=mxgraph.mockup.containers.anchor;rSize=0;fontSize=17;fontColor=#666666;align=left;" vertex="1" parent="fVwniOZ6-7kQJx1FWxja-1">
          <mxGeometry x="130" y="60" width="250" height="26" as="geometry" />
        </mxCell>
        <mxCell id="1bajZSScVruKFJBcDloZ-1" value="" style="html=1;shadow=0;dashed=0;fillColor=#E3F3FD;strokeColor=none;fontSize=16;fontColor=#161819;align=left;spacing=15;" parent="fVwniOZ6-7kQJx1FWxja-1" vertex="1">
          <mxGeometry y="110" width="800" height="60" as="geometry" />
        </mxCell>
        <mxCell id="dEa6n6A4rKTIE8WGfdA1-4" value="First name" style="html=1;shadow=0;dashed=0;shape=mxgraph.bootstrap.rrect;rSize=5;fillColor=none;strokeColor=#999999;align=left;spacing=15;fontSize=14;fontColor=#6C767D;" parent="fVwniOZ6-7kQJx1FWxja-1" vertex="1">
          <mxGeometry x="57.5" y="175" width="325" height="30" as="geometry" />
        </mxCell>
        <mxCell id="dEa6n6A4rKTIE8WGfdA1-5" value="Last name" style="html=1;shadow=0;dashed=0;shape=mxgraph.bootstrap.rrect;rSize=5;fillColor=none;strokeColor=#999999;align=left;spacing=15;fontSize=14;fontColor=#6C767D;" parent="fVwniOZ6-7kQJx1FWxja-1" vertex="1">
          <mxGeometry x="416.5" y="175" width="326" height="30" as="geometry" />
        </mxCell>
        <mxCell id="dEa6n6A4rKTIE8WGfdA1-6" value="Email" style="fillColor=none;strokeColor=none;align=left;fontSize=14;fontColor=#212529;" parent="fVwniOZ6-7kQJx1FWxja-1" vertex="1">
          <mxGeometry x="62.5" y="225" width="200" height="30" as="geometry" />
        </mxCell>
        <mxCell id="dEa6n6A4rKTIE8WGfdA1-7" value="" style="html=1;shadow=0;dashed=0;shape=mxgraph.bootstrap.rrect;rSize=5;fillColor=none;strokeColor=#999999;align=left;spacing=15;fontSize=14;fontColor=#6C767D;" parent="fVwniOZ6-7kQJx1FWxja-1" vertex="1">
          <mxGeometry x="262.5" y="225" width="280" height="30" as="geometry" />
        </mxCell>
        <mxCell id="dEa6n6A4rKTIE8WGfdA1-17" value="Identificación" style="fillColor=none;strokeColor=none;align=left;fontSize=14;" parent="fVwniOZ6-7kQJx1FWxja-1" vertex="1">
          <mxGeometry x="62.5" y="335" width="150" height="40" as="geometry" />
        </mxCell>
        <mxCell id="dEa6n6A4rKTIE8WGfdA1-18" value="Choose File" style="fillColor=#FEFEFE;strokeColor=#AAAAAA;fontSize=14;gradientColor=#F0F0F0;" parent="fVwniOZ6-7kQJx1FWxja-1" vertex="1">
          <mxGeometry x="62.5" y="375" width="90" height="30" as="geometry" />
        </mxCell>
        <mxCell id="dEa6n6A4rKTIE8WGfdA1-19" value="No file chosen" style="fillColor=none;strokeColor=none;align=left;fontSize=14;spacing=5;" parent="fVwniOZ6-7kQJx1FWxja-1" vertex="1">
          <mxGeometry x="162.5" y="375" width="100" height="30" as="geometry" />
        </mxCell>
        <mxCell id="dEa6n6A4rKTIE8WGfdA1-37" value="No.De empleado" style="fillColor=none;strokeColor=none;align=left;fontSize=14;fontColor=#212529;" parent="fVwniOZ6-7kQJx1FWxja-1" vertex="1">
          <mxGeometry x="62.5" y="265" width="200" height="30" as="geometry" />
        </mxCell>
        <mxCell id="dEa6n6A4rKTIE8WGfdA1-38" value="" style="html=1;shadow=0;dashed=0;shape=mxgraph.bootstrap.rrect;rSize=5;fillColor=none;strokeColor=#999999;align=left;spacing=15;fontSize=14;fontColor=#6C767D;" parent="fVwniOZ6-7kQJx1FWxja-1" vertex="1">
          <mxGeometry x="262.5" y="265" width="280" height="30" as="geometry" />
        </mxCell>
        <mxCell id="dEa6n6A4rKTIE8WGfdA1-39" value="" style="verticalLabelPosition=bottom;shadow=0;dashed=0;align=center;html=1;verticalAlign=top;strokeWidth=1;shape=mxgraph.mockup.containers.userMale;strokeColor=#666666;strokeColor2=#008cff;fillColor=#30C1FF;" parent="fVwniOZ6-7kQJx1FWxja-1" vertex="1">
          <mxGeometry x="302.5" y="315" width="100" height="100" as="geometry" />
        </mxCell>
      </root>
    </mxGraphModel>
  </diagram>
  <diagram id="JvoMFVhhC7JSgo-pFPQt" name="Home">
    <mxGraphModel dx="942" dy="600" grid="1" gridSize="10" guides="1" tooltips="1" connect="1" arrows="1" fold="1" page="1" pageScale="1" pageWidth="827" pageHeight="1169" math="0" shadow="0">
      <root>
        <mxCell id="0" />
        <mxCell id="1" parent="0" />
        <mxCell id="Cysqp6o4Dz6m9iI9Q-OC-8" value="" style="strokeWidth=1;shadow=0;dashed=0;align=center;html=1;shape=mxgraph.mockup.containers.browserWindow;rSize=0;strokeColor=#666666;strokeColor2=#008cff;strokeColor3=#c4c4c4;mainText=,;recursiveResize=0;" vertex="1" parent="1">
          <mxGeometry x="14" y="20" width="800" height="570" as="geometry" />
        </mxCell>
        <mxCell id="Cysqp6o4Dz6m9iI9Q-OC-9" value="Page 1" style="strokeWidth=1;shadow=0;dashed=0;align=center;html=1;shape=mxgraph.mockup.containers.anchor;fontSize=17;fontColor=#666666;align=left;" vertex="1" parent="Cysqp6o4Dz6m9iI9Q-OC-8">
          <mxGeometry x="60" y="12" width="110" height="26" as="geometry" />
        </mxCell>
        <mxCell id="Cysqp6o4Dz6m9iI9Q-OC-10" value="https://www.draw.io" style="strokeWidth=1;shadow=0;dashed=0;align=center;html=1;shape=mxgraph.mockup.containers.anchor;rSize=0;fontSize=17;fontColor=#666666;align=left;" vertex="1" parent="Cysqp6o4Dz6m9iI9Q-OC-8">
          <mxGeometry x="130" y="60" width="250" height="26" as="geometry" />
        </mxCell>
        <mxCell id="rDNHl8BMCYdWhSfL-P6f-9" value="Navbar" style="html=1;shadow=0;dashed=0;fillColor=#E3F3FD;strokeColor=none;fontSize=16;fontColor=#161819;align=left;spacing=15;" parent="Cysqp6o4Dz6m9iI9Q-OC-8" vertex="1">
          <mxGeometry y="110" width="800" height="60" as="geometry" />
        </mxCell>
        <mxCell id="rDNHl8BMCYdWhSfL-P6f-10" value="Home" style="fillColor=none;strokeColor=none;fontSize=14;fontColor=#161819;align=center;" parent="rDNHl8BMCYdWhSfL-P6f-9" vertex="1">
          <mxGeometry width="70" height="40" relative="1" as="geometry">
            <mxPoint x="70" y="10" as="offset" />
          </mxGeometry>
        </mxCell>
        <mxCell id="rDNHl8BMCYdWhSfL-P6f-11" value="Registrar" style="fillColor=none;strokeColor=none;fontSize=14;fontColor=#71797E;align=center;" parent="rDNHl8BMCYdWhSfL-P6f-9" vertex="1">
          <mxGeometry width="70" height="40" relative="1" as="geometry">
            <mxPoint x="140" y="10" as="offset" />
          </mxGeometry>
        </mxCell>
        <mxCell id="rDNHl8BMCYdWhSfL-P6f-12" value="Appointment" style="fillColor=none;strokeColor=none;fontSize=14;fontColor=#71797E;align=center;spacingRight=0;" parent="rDNHl8BMCYdWhSfL-P6f-9" vertex="1">
          <mxGeometry width="80" height="40" relative="1" as="geometry">
            <mxPoint x="210" y="10" as="offset" />
          </mxGeometry>
        </mxCell>
        <mxCell id="rDNHl8BMCYdWhSfL-P6f-13" value="About" style="fillColor=none;strokeColor=none;fontSize=14;fontColor=#71797E;align=center;" parent="rDNHl8BMCYdWhSfL-P6f-9" vertex="1">
          <mxGeometry width="80" height="40" relative="1" as="geometry">
            <mxPoint x="290" y="10" as="offset" />
          </mxGeometry>
        </mxCell>
        <mxCell id="FNm4fHflZgVi7lnYZfn7-1" value="&lt;span style=&quot;font-size: 40px&quot;&gt;Validación&amp;nbsp;de acceso.&lt;/span&gt;&amp;nbsp;&amp;nbsp;&amp;nbsp;&amp;nbsp;&amp;nbsp;&amp;nbsp;&amp;nbsp;&amp;nbsp;&amp;nbsp;&amp;nbsp;&amp;nbsp;&amp;nbsp;&amp;nbsp;&amp;nbsp;&amp;nbsp;&amp;nbsp;&amp;nbsp;&amp;nbsp;&amp;nbsp;&amp;nbsp;&amp;nbsp;&amp;nbsp;&amp;nbsp;&amp;nbsp;&amp;nbsp;&amp;nbsp;&amp;nbsp;&amp;nbsp;&amp;nbsp;&amp;nbsp;&amp;nbsp;&amp;nbsp;&amp;nbsp;&amp;nbsp;&amp;nbsp;&amp;nbsp;&amp;nbsp;&amp;nbsp;&amp;nbsp;&amp;nbsp;&amp;nbsp;&amp;nbsp;&amp;nbsp;&amp;nbsp;&amp;nbsp;&amp;nbsp;&amp;nbsp;&amp;nbsp;&amp;nbsp;&amp;nbsp;&amp;nbsp;&amp;nbsp;&amp;nbsp;&amp;nbsp;&amp;nbsp;&amp;nbsp;&amp;nbsp;&amp;nbsp;&amp;nbsp;&amp;nbsp;&amp;nbsp;&amp;nbsp;&amp;nbsp;&amp;nbsp;&amp;nbsp;&amp;nbsp;&amp;nbsp;&amp;nbsp;&amp;nbsp;&amp;nbsp;&amp;nbsp;&amp;nbsp;&amp;nbsp;&amp;nbsp;&amp;nbsp;&amp;nbsp;&amp;nbsp;&amp;nbsp;&amp;nbsp;&amp;nbsp;&amp;nbsp;&amp;nbsp;&amp;nbsp;&amp;nbsp;&amp;nbsp;&amp;nbsp;&amp;nbsp;&amp;nbsp;&amp;nbsp;&amp;nbsp;&amp;nbsp;&amp;nbsp;&amp;nbsp;&amp;nbsp;&amp;nbsp;&amp;nbsp; Detalles" style="html=1;shadow=0;dashed=0;shape=mxgraph.bootstrap.rrect;rSize=5;strokeColor=none;html=1;whiteSpace=wrap;fillColor=#E9ECEF;fontColor=#474E4F;align=left;spacing=15;fontSize=14;verticalAlign=top;spacingTop=40;" parent="Cysqp6o4Dz6m9iI9Q-OC-8" vertex="1">
          <mxGeometry y="170" width="800" height="300" as="geometry" />
        </mxCell>
        <mxCell id="FNm4fHflZgVi7lnYZfn7-2" value="It uses utility classes for typography and spacing to space content out within the larger container." style="shape=line;html=1;shadow=0;dashed=0;strokeColor=#CED4DA;gradientColor=inherit;fontColor=inherit;fillColor=#E9ECEF;rSize=5;perimeter=none;whiteSpace=wrap;resizeHeight=1;fontSize=14;align=left;spacing=2;labelPosition=center;verticalLabelPosition=bottom;verticalAlign=top;spacingTop=10;" parent="FNm4fHflZgVi7lnYZfn7-1" vertex="1">
          <mxGeometry width="770" height="10" relative="1" as="geometry">
            <mxPoint x="15" y="150" as="offset" />
          </mxGeometry>
        </mxCell>
        <mxCell id="FNm4fHflZgVi7lnYZfn7-3" value="Finalizar" style="html=1;shadow=0;dashed=0;shape=mxgraph.bootstrap.rrect;rSize=5;fillColor=#0085FC;strokeColor=none;align=center;spacing=15;fontSize=14;fontColor=#ffffff;" parent="FNm4fHflZgVi7lnYZfn7-1" vertex="1">
          <mxGeometry y="1" width="100" height="40" relative="1" as="geometry">
            <mxPoint x="15" y="-80" as="offset" />
          </mxGeometry>
        </mxCell>
        <mxCell id="dAXjUHtrqAKkh_Y25AOb-1" value="" style="verticalLabelPosition=bottom;shadow=0;dashed=0;align=center;html=1;verticalAlign=top;strokeWidth=1;shape=mxgraph.mockup.containers.userMale;strokeColor=#666666;strokeColor2=#008cff;fillColor=#30C1FF;" parent="FNm4fHflZgVi7lnYZfn7-1" vertex="1">
          <mxGeometry x="690" width="100" height="100" as="geometry" />
        </mxCell>
        <mxCell id="PetB0MQ1tvgg-W-R-sZE-1" value="&lt;div&gt;Usted tiene acceso.&lt;/div&gt;" style="strokeWidth=1;shadow=0;dashed=0;align=center;html=1;shape=mxgraph.mockup.containers.rrect;rSize=0;strokeColor=#666666;fontColor=#666666;fontSize=17;verticalAlign=top;whiteSpace=wrap;fillColor=#ffffff;spacingTop=32;" vertex="1" parent="FNm4fHflZgVi7lnYZfn7-1">
          <mxGeometry x="426" y="10" width="250" height="160" as="geometry" />
        </mxCell>
        <mxCell id="PetB0MQ1tvgg-W-R-sZE-2" value="Bienvenido" style="strokeWidth=1;shadow=0;dashed=0;align=center;html=1;shape=mxgraph.mockup.containers.rrect;rSize=0;fontSize=17;strokeColor=#6c8ebf;align=left;spacingLeft=8;fillColor=#dae8fc;resizeWidth=1;" vertex="1" parent="PetB0MQ1tvgg-W-R-sZE-1">
          <mxGeometry width="250" height="30" relative="1" as="geometry" />
        </mxCell>
        <mxCell id="PetB0MQ1tvgg-W-R-sZE-3" value="" style="shape=ellipse;strokeColor=#008cff;resizable=0;fillColor=none;html=1;" vertex="1" parent="PetB0MQ1tvgg-W-R-sZE-2">
          <mxGeometry x="1" y="0.5" width="20" height="20" relative="1" as="geometry">
            <mxPoint x="-25" y="-10" as="offset" />
          </mxGeometry>
        </mxCell>
        <mxCell id="PetB0MQ1tvgg-W-R-sZE-4" value="OK" style="strokeWidth=1;shadow=0;dashed=0;align=center;html=1;shape=mxgraph.mockup.containers.rrect;rSize=0;fontSize=16;fontColor=#666666;strokeColor=#c4c4c4;resizable=0;whiteSpace=wrap;fillColor=#ffffff;" vertex="1" parent="PetB0MQ1tvgg-W-R-sZE-1">
          <mxGeometry x="0.5" y="1" width="120" height="25" relative="1" as="geometry">
            <mxPoint x="-60" y="-33" as="offset" />
          </mxGeometry>
        </mxCell>
        <mxCell id="QRmg8xbhHw-fqAQj3a3w-1" value="" style="verticalLabelPosition=bottom;shadow=0;dashed=0;align=center;html=1;verticalAlign=top;strokeWidth=1;shape=mxgraph.mockup.misc.help_icon;fontColor=#3399FF;" vertex="1" parent="FNm4fHflZgVi7lnYZfn7-1">
          <mxGeometry x="16" y="10" width="32" height="32" as="geometry" />
        </mxCell>
        <mxCell id="PetB0MQ1tvgg-W-R-sZE-5" value="Usted no tiene acceso, continué para ver los detalles" style="strokeWidth=1;shadow=0;dashed=0;align=center;html=1;shape=mxgraph.mockup.containers.rrect;rSize=0;strokeColor=#666666;fontColor=#666666;fontSize=17;verticalAlign=top;whiteSpace=wrap;fillColor=#ffffff;spacingTop=32;" vertex="1" parent="1">
          <mxGeometry x="450" y="510" width="250" height="160" as="geometry" />
        </mxCell>
        <mxCell id="PetB0MQ1tvgg-W-R-sZE-6" value="Acceso denegado" style="strokeWidth=1;shadow=0;dashed=0;align=center;html=1;shape=mxgraph.mockup.containers.rrect;rSize=0;fontSize=17;strokeColor=#b85450;align=left;spacingLeft=8;fillColor=#f8cecc;resizeWidth=1;" vertex="1" parent="PetB0MQ1tvgg-W-R-sZE-5">
          <mxGeometry width="250" height="30" relative="1" as="geometry" />
        </mxCell>
        <mxCell id="PetB0MQ1tvgg-W-R-sZE-7" value="" style="shape=ellipse;strokeColor=#008cff;resizable=0;fillColor=none;html=1;" vertex="1" parent="PetB0MQ1tvgg-W-R-sZE-6">
          <mxGeometry x="1" y="0.5" width="20" height="20" relative="1" as="geometry">
            <mxPoint x="-25" y="-10" as="offset" />
          </mxGeometry>
        </mxCell>
        <mxCell id="PetB0MQ1tvgg-W-R-sZE-8" value="OK" style="strokeWidth=1;shadow=0;dashed=0;align=center;html=1;shape=mxgraph.mockup.containers.rrect;rSize=0;fontSize=16;fontColor=#666666;strokeColor=#c4c4c4;resizable=0;whiteSpace=wrap;fillColor=#ffffff;" vertex="1" parent="PetB0MQ1tvgg-W-R-sZE-5">
          <mxGeometry x="0.5" y="1" width="120" height="25" relative="1" as="geometry">
            <mxPoint x="-60" y="-33" as="offset" />
          </mxGeometry>
        </mxCell>
        <mxCell id="PetB0MQ1tvgg-W-R-sZE-9" style="edgeStyle=orthogonalEdgeStyle;rounded=0;orthogonalLoop=1;jettySize=auto;html=1;entryX=0.46;entryY=-0.133;entryDx=0;entryDy=0;entryPerimeter=0;" edge="1" parent="1" source="PetB0MQ1tvgg-W-R-sZE-4" target="PetB0MQ1tvgg-W-R-sZE-6">
          <mxGeometry relative="1" as="geometry">
            <Array as="points">
              <mxPoint x="570" y="506" />
            </Array>
          </mxGeometry>
        </mxCell>
      </root>
    </mxGraphModel>
  </diagram>
  <diagram id="I7rsSS-r2kZLU9fK9O5t" name="Register">
    <mxGraphModel dx="942" dy="600" grid="1" gridSize="10" guides="1" tooltips="1" connect="1" arrows="1" fold="1" page="1" pageScale="1" pageWidth="827" pageHeight="1169" math="0" shadow="0">
      <root>
        <mxCell id="0" />
        <mxCell id="1" parent="0" />
        <mxCell id="i1M_viUzZls5Qoy-Iq-h-1" value="" style="strokeWidth=1;shadow=0;dashed=0;align=center;html=1;shape=mxgraph.mockup.containers.browserWindow;rSize=0;strokeColor=#666666;strokeColor2=#008cff;strokeColor3=#c4c4c4;mainText=,;recursiveResize=0;" vertex="1" parent="1">
          <mxGeometry x="9" y="20" width="810" height="920" as="geometry" />
        </mxCell>
        <mxCell id="i1M_viUzZls5Qoy-Iq-h-2" value="Page 1" style="strokeWidth=1;shadow=0;dashed=0;align=center;html=1;shape=mxgraph.mockup.containers.anchor;fontSize=17;fontColor=#666666;align=left;" vertex="1" parent="i1M_viUzZls5Qoy-Iq-h-1">
          <mxGeometry x="60" y="12" width="110" height="26" as="geometry" />
        </mxCell>
        <mxCell id="i1M_viUzZls5Qoy-Iq-h-3" value="https://www.Acces/register" style="strokeWidth=1;shadow=0;dashed=0;align=center;html=1;shape=mxgraph.mockup.containers.anchor;rSize=0;fontSize=17;fontColor=#666666;align=left;" vertex="1" parent="i1M_viUzZls5Qoy-Iq-h-1">
          <mxGeometry x="130" y="60" width="250" height="26" as="geometry" />
        </mxCell>
        <mxCell id="ZR_nNzb0zbrMv82-q4zA-1" value="Navbar" style="html=1;shadow=0;dashed=0;fillColor=#E3F3FD;strokeColor=none;fontSize=16;fontColor=#161819;align=left;spacing=15;" parent="i1M_viUzZls5Qoy-Iq-h-1" vertex="1">
          <mxGeometry y="110" width="800" height="60" as="geometry" />
        </mxCell>
        <mxCell id="ZR_nNzb0zbrMv82-q4zA-2" value="Registrar" style="fillColor=none;strokeColor=none;fontSize=14;fontColor=#161819;align=center;" parent="ZR_nNzb0zbrMv82-q4zA-1" vertex="1">
          <mxGeometry width="70" height="40" relative="1" as="geometry">
            <mxPoint x="140" y="10" as="offset" />
          </mxGeometry>
        </mxCell>
        <mxCell id="ZR_nNzb0zbrMv82-q4zA-3" value="Home" style="fillColor=none;strokeColor=none;fontSize=14;fontColor=#71797E;align=center;" parent="ZR_nNzb0zbrMv82-q4zA-1" vertex="1">
          <mxGeometry width="60" height="40" relative="1" as="geometry">
            <mxPoint x="80" y="10" as="offset" />
          </mxGeometry>
        </mxCell>
        <mxCell id="ZR_nNzb0zbrMv82-q4zA-4" value="Citas" style="fillColor=none;strokeColor=none;fontSize=14;fontColor=#71797E;align=center;spacingRight=0;" parent="ZR_nNzb0zbrMv82-q4zA-1" vertex="1">
          <mxGeometry width="80" height="40" relative="1" as="geometry">
            <mxPoint x="210" y="10" as="offset" />
          </mxGeometry>
        </mxCell>
        <mxCell id="ZR_nNzb0zbrMv82-q4zA-5" value="About" style="fillColor=none;strokeColor=none;fontSize=14;fontColor=#71797E;align=center;" parent="ZR_nNzb0zbrMv82-q4zA-1" vertex="1">
          <mxGeometry width="80" height="40" relative="1" as="geometry">
            <mxPoint x="290" y="10" as="offset" />
          </mxGeometry>
        </mxCell>
        <mxCell id="mMilhQIRzS-7CYnUkoxE-20" value="Email" style="fillColor=none;strokeColor=none;align=left;fontSize=14;fontColor=#212529;" parent="i1M_viUzZls5Qoy-Iq-h-1" vertex="1">
          <mxGeometry x="10" y="240" width="400" height="30" as="geometry" />
        </mxCell>
        <mxCell id="mMilhQIRzS-7CYnUkoxE-21" value="" style="html=1;shadow=0;dashed=0;shape=mxgraph.bootstrap.rrect;rSize=5;fillColor=none;strokeColor=#999999;align=left;spacing=15;fontSize=14;fontColor=#6C767D;" parent="i1M_viUzZls5Qoy-Iq-h-1" vertex="1">
          <mxGeometry x="10" y="270" width="395" height="30" as="geometry" />
        </mxCell>
        <mxCell id="mMilhQIRzS-7CYnUkoxE-22" value="Password" style="fillColor=none;strokeColor=none;align=left;fontSize=14;fontColor=#212529;" parent="i1M_viUzZls5Qoy-Iq-h-1" vertex="1">
          <mxGeometry x="410" y="240" width="390" height="30" as="geometry" />
        </mxCell>
        <mxCell id="mMilhQIRzS-7CYnUkoxE-23" value="" style="html=1;shadow=0;dashed=0;shape=mxgraph.bootstrap.rrect;rSize=5;fillColor=none;strokeColor=#999999;align=left;spacing=15;fontSize=14;fontColor=#6C767D;" parent="i1M_viUzZls5Qoy-Iq-h-1" vertex="1">
          <mxGeometry x="415" y="270" width="375" height="30" as="geometry" />
        </mxCell>
        <mxCell id="mMilhQIRzS-7CYnUkoxE-24" value="Address" style="fillColor=none;strokeColor=none;align=left;fontSize=14;fontColor=#212529;" parent="i1M_viUzZls5Qoy-Iq-h-1" vertex="1">
          <mxGeometry x="10" y="310" width="390" height="30" as="geometry" />
        </mxCell>
        <mxCell id="mMilhQIRzS-7CYnUkoxE-25" value="1234 Main St" style="html=1;shadow=0;dashed=0;shape=mxgraph.bootstrap.rrect;rSize=5;fillColor=none;strokeColor=#999999;align=left;spacing=15;fontSize=14;fontColor=#6C767D;" parent="i1M_viUzZls5Qoy-Iq-h-1" vertex="1">
          <mxGeometry x="10" y="340" width="780" height="30" as="geometry" />
        </mxCell>
        <mxCell id="mMilhQIRzS-7CYnUkoxE-26" value="Address 2" style="fillColor=none;strokeColor=none;align=left;fontSize=14;fontColor=#212529;" parent="i1M_viUzZls5Qoy-Iq-h-1" vertex="1">
          <mxGeometry x="10" y="380" width="390" height="30" as="geometry" />
        </mxCell>
        <mxCell id="mMilhQIRzS-7CYnUkoxE-27" value="Apartment, studio or floor" style="html=1;shadow=0;dashed=0;shape=mxgraph.bootstrap.rrect;rSize=5;fillColor=none;strokeColor=#999999;align=left;spacing=15;fontSize=14;fontColor=#6C767D;" parent="i1M_viUzZls5Qoy-Iq-h-1" vertex="1">
          <mxGeometry x="10" y="410" width="780" height="30" as="geometry" />
        </mxCell>
        <mxCell id="mMilhQIRzS-7CYnUkoxE-28" value="City" style="fillColor=none;strokeColor=none;align=left;fontSize=14;fontColor=#212529;" parent="i1M_viUzZls5Qoy-Iq-h-1" vertex="1">
          <mxGeometry x="10" y="450" width="390" height="30" as="geometry" />
        </mxCell>
        <mxCell id="mMilhQIRzS-7CYnUkoxE-29" value="" style="html=1;shadow=0;dashed=0;shape=mxgraph.bootstrap.rrect;rSize=5;fillColor=none;strokeColor=#999999;align=left;spacing=15;fontSize=14;fontColor=#6C767D;" parent="i1M_viUzZls5Qoy-Iq-h-1" vertex="1">
          <mxGeometry x="10" y="480" width="390" height="30" as="geometry" />
        </mxCell>
        <mxCell id="mMilhQIRzS-7CYnUkoxE-30" value="State" style="fillColor=none;strokeColor=none;align=left;fontSize=14;fontColor=#212529;" parent="i1M_viUzZls5Qoy-Iq-h-1" vertex="1">
          <mxGeometry x="420" y="450" width="220" height="30" as="geometry" />
        </mxCell>
        <mxCell id="mMilhQIRzS-7CYnUkoxE-31" value="Choose..." style="html=1;shadow=0;dashed=0;shape=mxgraph.bootstrap.rrect;rSize=5;fillColor=none;strokeColor=#999999;align=left;spacing=15;fontSize=14;fontColor=#6C767D;" parent="i1M_viUzZls5Qoy-Iq-h-1" vertex="1">
          <mxGeometry x="420" y="480" width="270" height="30" as="geometry" />
        </mxCell>
        <mxCell id="mMilhQIRzS-7CYnUkoxE-32" value="" style="shape=triangle;direction=south;fillColor=#212529;strokeColor=none;perimeter=none;" parent="mMilhQIRzS-7CYnUkoxE-31" vertex="1">
          <mxGeometry x="1" y="0.5" width="10" height="5" relative="1" as="geometry">
            <mxPoint x="-17" y="-2.5" as="offset" />
          </mxGeometry>
        </mxCell>
        <mxCell id="mMilhQIRzS-7CYnUkoxE-33" value="Zip" style="fillColor=none;strokeColor=none;align=left;fontSize=14;fontColor=#212529;" parent="i1M_viUzZls5Qoy-Iq-h-1" vertex="1">
          <mxGeometry x="710" y="450" width="100" height="30" as="geometry" />
        </mxCell>
        <mxCell id="mMilhQIRzS-7CYnUkoxE-34" value="" style="html=1;shadow=0;dashed=0;shape=mxgraph.bootstrap.rrect;rSize=5;fillColor=none;strokeColor=#999999;align=left;spacing=15;fontSize=14;fontColor=#6C767D;" parent="i1M_viUzZls5Qoy-Iq-h-1" vertex="1">
          <mxGeometry x="710" y="480" width="80" height="30" as="geometry" />
        </mxCell>
        <mxCell id="mMilhQIRzS-7CYnUkoxE-35" value="Check me out" style="html=1;shadow=0;dashed=0;shape=mxgraph.bootstrap.checkbox2;labelPosition=right;verticalLabelPosition=middle;align=left;verticalAlign=middle;gradientColor=#DEDEDE;fillColor=#EDEDED;checked=0;spacing=5;strokeColor=#999999;fontColor=#212529;checkedFill=#0085FC;checkedStroke=#ffffff;" parent="i1M_viUzZls5Qoy-Iq-h-1" vertex="1">
          <mxGeometry x="10" y="820" width="10" height="10" as="geometry" />
        </mxCell>
        <mxCell id="mMilhQIRzS-7CYnUkoxE-36" value="Sign in" style="html=1;shadow=0;dashed=0;shape=mxgraph.bootstrap.rrect;rSize=5;fillColor=#0085FC;strokeColor=none;align=center;fontSize=14;fontColor=#FFFFFF;" parent="i1M_viUzZls5Qoy-Iq-h-1" vertex="1">
          <mxGeometry x="12.5" y="840" width="70" height="40" as="geometry" />
        </mxCell>
        <mxCell id="mMilhQIRzS-7CYnUkoxE-37" value="First name" style="html=1;shadow=0;dashed=0;shape=mxgraph.bootstrap.rrect;rSize=5;fillColor=none;strokeColor=#999999;align=left;spacing=15;fontSize=14;fontColor=#6C767D;" parent="i1M_viUzZls5Qoy-Iq-h-1" vertex="1">
          <mxGeometry x="10" y="200" width="390" height="30" as="geometry" />
        </mxCell>
        <mxCell id="mMilhQIRzS-7CYnUkoxE-38" value="Last name" style="html=1;shadow=0;dashed=0;shape=mxgraph.bootstrap.rrect;rSize=5;fillColor=none;strokeColor=#999999;align=left;spacing=15;fontSize=14;fontColor=#6C767D;" parent="i1M_viUzZls5Qoy-Iq-h-1" vertex="1">
          <mxGeometry x="420" y="200" width="380" height="30" as="geometry" />
        </mxCell>
        <mxCell id="mMilhQIRzS-7CYnUkoxE-41" value="Must be 8-20 characters long." style="fillColor=none;strokeColor=none;align=left;spacing=2;fontSize=12;fontColor=#999999;" parent="i1M_viUzZls5Qoy-Iq-h-1" vertex="1">
          <mxGeometry x="444" y="265" width="170" height="40" as="geometry" />
        </mxCell>
        <mxCell id="mMilhQIRzS-7CYnUkoxE-42" value="Open this select menu" style="html=1;shadow=0;dashed=0;shape=mxgraph.bootstrap.rrect;rSize=5;fillColor=#ffffff;strokeColor=#CED4DA;align=left;spacing=15;fontSize=14;fontColor=#6C767D;" parent="i1M_viUzZls5Qoy-Iq-h-1" vertex="1">
          <mxGeometry x="10" y="540" width="390" height="40" as="geometry" />
        </mxCell>
        <mxCell id="mMilhQIRzS-7CYnUkoxE-43" value="" style="shape=triangle;direction=south;fillColor=#343A40;strokeColor=none;perimeter=none;" parent="mMilhQIRzS-7CYnUkoxE-42" vertex="1">
          <mxGeometry x="1" y="0.5" width="7" height="3" relative="1" as="geometry">
            <mxPoint x="-17" y="1" as="offset" />
          </mxGeometry>
        </mxCell>
        <mxCell id="mMilhQIRzS-7CYnUkoxE-44" value="" style="shape=triangle;direction=north;fillColor=#343A40;strokeColor=none;perimeter=none;" parent="mMilhQIRzS-7CYnUkoxE-42" vertex="1">
          <mxGeometry x="1" y="0.5" width="7" height="3" relative="1" as="geometry">
            <mxPoint x="-17" y="-4" as="offset" />
          </mxGeometry>
        </mxCell>
        <mxCell id="mMilhQIRzS-7CYnUkoxE-45" value="Departamento" style="fillColor=none;strokeColor=none;align=left;fontSize=14;fontColor=#212529;" parent="i1M_viUzZls5Qoy-Iq-h-1" vertex="1">
          <mxGeometry x="12.5" y="510" width="390" height="30" as="geometry" />
        </mxCell>
        <mxCell id="mMilhQIRzS-7CYnUkoxE-46" value="Choose file" style="html=1;shadow=0;dashed=0;shape=mxgraph.bootstrap.rrect;rSize=5;strokeColor=#CED4DA;html=1;whiteSpace=wrap;fillColor=#FFFFFF;fontColor=#7D868C;align=left;spacing=15;spacingLeft=80;fontSize=14;" parent="i1M_viUzZls5Qoy-Iq-h-1" vertex="1">
          <mxGeometry x="420" y="540" width="370" height="40" as="geometry" />
        </mxCell>
        <mxCell id="mMilhQIRzS-7CYnUkoxE-47" value="Upload" style="html=1;shadow=0;dashed=0;shape=mxgraph.bootstrap.leftButton;strokeColor=#CED4DA;gradientColor=inherit;fontColor=inherit;fillColor=#E9ECEF;rSize=5;perimeter=none;whiteSpace=wrap;resizeHeight=1;fontSize=14;align=left;spacing=15;" parent="mMilhQIRzS-7CYnUkoxE-46" vertex="1">
          <mxGeometry width="80" height="40" relative="1" as="geometry" />
        </mxCell>
        <mxCell id="mMilhQIRzS-7CYnUkoxE-48" value="Browse" style="html=1;shadow=0;dashed=0;shape=mxgraph.bootstrap.rightButton;strokeColor=#CED4DA;gradientColor=inherit;fontColor=inherit;fillColor=#E9ECEF;rSize=5;perimeter=none;whiteSpace=wrap;resizeHeight=1;fontSize=14;align=left;spacing=15;" parent="mMilhQIRzS-7CYnUkoxE-46" vertex="1">
          <mxGeometry x="1" width="80" height="40" relative="1" as="geometry">
            <mxPoint x="-80" as="offset" />
          </mxGeometry>
        </mxCell>
        <mxCell id="mMilhQIRzS-7CYnUkoxE-49" value="" style="verticalLabelPosition=bottom;shadow=0;dashed=0;align=center;html=1;verticalAlign=top;strokeWidth=1;shape=mxgraph.mockup.containers.userMale;strokeColor=#666666;strokeColor2=#008cff;fillColor=#30C1FF;" parent="i1M_viUzZls5Qoy-Iq-h-1" vertex="1">
          <mxGeometry x="532.5" y="595" width="150" height="125" as="geometry" />
        </mxCell>
        <mxCell id="mMilhQIRzS-7CYnUkoxE-50" value="Fotografia" style="fillColor=none;strokeColor=none;align=left;fontSize=14;fontColor=#212529;" parent="i1M_viUzZls5Qoy-Iq-h-1" vertex="1">
          <mxGeometry x="419" y="510" width="390" height="30" as="geometry" />
        </mxCell>
        <mxCell id="3PCiuTk-GZElIEWOKMvY-1" value="No.De empleado" style="fillColor=none;strokeColor=none;align=left;fontSize=14;fontColor=#212529;" parent="i1M_viUzZls5Qoy-Iq-h-1" vertex="1">
          <mxGeometry x="10" y="600" width="200" height="30" as="geometry" />
        </mxCell>
        <mxCell id="SuFhT8Gbx_zhu8kUFsmX-1" value="" style="html=1;shadow=0;dashed=0;shape=mxgraph.bootstrap.rrect;rSize=5;fillColor=none;strokeColor=#999999;align=left;spacing=15;fontSize=14;fontColor=#6C767D;" parent="i1M_viUzZls5Qoy-Iq-h-1" vertex="1">
          <mxGeometry x="150" y="600" width="280" height="30" as="geometry" />
        </mxCell>
        <mxCell id="nJe2x5Lm7LnFRVl1mkF1-1" value="Permisos" style="html=1;shadow=0;dashed=0;shape=mxgraph.bootstrap.rect;strokeColor=none;fillColor=none;fontColor=#999999;align=left;spacingLeft=5;whiteSpace=wrap;rounded=0;" vertex="1" parent="i1M_viUzZls5Qoy-Iq-h-1">
          <mxGeometry x="10" y="647.5" width="200" height="20" as="geometry" />
        </mxCell>
        <mxCell id="nJe2x5Lm7LnFRVl1mkF1-2" value="Top Management" style="html=1;shadow=0;dashed=0;shape=mxgraph.bootstrap.checkbox;fontSize=12;strokeColor=#999999;align=left;labelPosition=right;spacingLeft=5;rounded=0;" vertex="1" parent="i1M_viUzZls5Qoy-Iq-h-1">
          <mxGeometry x="12.5" y="680" width="14" height="14" as="geometry" />
        </mxCell>
        <mxCell id="nJe2x5Lm7LnFRVl1mkF1-3" value="Marketing Department" style="html=1;shadow=0;dashed=0;shape=mxgraph.bootstrap.rrect;fontSize=12;rSize=3;strokeColor=#999999;align=left;labelPosition=right;spacingLeft=5;rounded=0;" vertex="1" parent="i1M_viUzZls5Qoy-Iq-h-1">
          <mxGeometry x="12.5" y="700" width="14" height="14" as="geometry" />
        </mxCell>
        <mxCell id="nJe2x5Lm7LnFRVl1mkF1-4" value="Design Department" style="html=1;shadow=0;dashed=0;shape=mxgraph.bootstrap.checkbox;fontSize=12;strokeColor=#999999;align=left;labelPosition=right;spacingLeft=5;rounded=0;" vertex="1" parent="i1M_viUzZls5Qoy-Iq-h-1">
          <mxGeometry x="12.5" y="720" width="14" height="14" as="geometry" />
        </mxCell>
        <mxCell id="nJe2x5Lm7LnFRVl1mkF1-5" value="Financial Department" style="html=1;shadow=0;dashed=0;shape=mxgraph.bootstrap.rrect;fontSize=12;rSize=3;strokeColor=#999999;align=left;labelPosition=right;spacingLeft=5;rounded=0;" vertex="1" parent="i1M_viUzZls5Qoy-Iq-h-1">
          <mxGeometry x="12.5" y="740" width="14" height="14" as="geometry" />
        </mxCell>
        <mxCell id="nJe2x5Lm7LnFRVl1mkF1-6" value="Supply Department" style="html=1;shadow=0;dashed=0;shape=mxgraph.bootstrap.rrect;fontSize=12;rSize=3;strokeColor=#999999;align=left;labelPosition=right;spacingLeft=5;rounded=0;" vertex="1" parent="i1M_viUzZls5Qoy-Iq-h-1">
          <mxGeometry x="12.5" y="760" width="14" height="14" as="geometry" />
        </mxCell>
      </root>
    </mxGraphModel>
  </diagram>
  <diagram id="km5KsT53W6mNBczGH5Ol" name="appointment">
    <mxGraphModel dx="942" dy="600" grid="1" gridSize="10" guides="1" tooltips="1" connect="1" arrows="1" fold="1" page="1" pageScale="1" pageWidth="850" pageHeight="1100" math="0" shadow="0">
      <root>
        <mxCell id="0" />
        <mxCell id="1" parent="0" />
        <mxCell id="AY3byko3e69iEBMZdPLB-1" value="" style="strokeWidth=1;shadow=0;dashed=0;align=center;html=1;shape=mxgraph.mockup.containers.browserWindow;rSize=0;strokeColor=#666666;strokeColor2=#008cff;strokeColor3=#c4c4c4;mainText=,;recursiveResize=0;" vertex="1" parent="1">
          <mxGeometry x="20" y="60" width="800" height="500" as="geometry" />
        </mxCell>
        <mxCell id="AY3byko3e69iEBMZdPLB-2" value="Page 1" style="strokeWidth=1;shadow=0;dashed=0;align=center;html=1;shape=mxgraph.mockup.containers.anchor;fontSize=17;fontColor=#666666;align=left;" vertex="1" parent="AY3byko3e69iEBMZdPLB-1">
          <mxGeometry x="60" y="12" width="110" height="26" as="geometry" />
        </mxCell>
        <mxCell id="AY3byko3e69iEBMZdPLB-3" value="https://www.Citas/consultar.io" style="strokeWidth=1;shadow=0;dashed=0;align=center;html=1;shape=mxgraph.mockup.containers.anchor;rSize=0;fontSize=17;fontColor=#666666;align=left;" vertex="1" parent="AY3byko3e69iEBMZdPLB-1">
          <mxGeometry x="130" y="60" width="250" height="26" as="geometry" />
        </mxCell>
        <mxCell id="M_IU9VJn7yAquRq2Jqlh-1" value="Navbar" style="html=1;shadow=0;dashed=0;fillColor=#E3F3FD;strokeColor=none;fontSize=16;fontColor=#161819;align=left;spacing=15;" vertex="1" parent="AY3byko3e69iEBMZdPLB-1">
          <mxGeometry y="110" width="800" height="60" as="geometry" />
        </mxCell>
        <mxCell id="M_IU9VJn7yAquRq2Jqlh-3" value="Home" style="fillColor=none;strokeColor=none;fontSize=14;fontColor=#71797E;align=center;" vertex="1" parent="M_IU9VJn7yAquRq2Jqlh-1">
          <mxGeometry width="60" height="40" relative="1" as="geometry">
            <mxPoint x="80" y="10" as="offset" />
          </mxGeometry>
        </mxCell>
        <mxCell id="M_IU9VJn7yAquRq2Jqlh-4" value="Registrar" style="fillColor=none;strokeColor=none;fontSize=14;fontColor=#71797E;align=center;spacingRight=0;" vertex="1" parent="M_IU9VJn7yAquRq2Jqlh-1">
          <mxGeometry width="80" height="40" relative="1" as="geometry">
            <mxPoint x="140" y="10" as="offset" />
          </mxGeometry>
        </mxCell>
        <mxCell id="M_IU9VJn7yAquRq2Jqlh-5" value="About" style="fillColor=none;strokeColor=none;fontSize=14;fontColor=#71797E;align=center;" vertex="1" parent="M_IU9VJn7yAquRq2Jqlh-1">
          <mxGeometry width="80" height="40" relative="1" as="geometry">
            <mxPoint x="290" y="10" as="offset" />
          </mxGeometry>
        </mxCell>
        <mxCell id="jm5OCSoCzJLPLTaCahWW-8" value="Citas" style="strokeColor=none;fillColor=none;rSize=5;perimeter=none;whiteSpace=wrap;resizeWidth=1;align=center;spacing=20;fontSize=14;fontColor=#000000;spacingRight=10;" vertex="1" parent="M_IU9VJn7yAquRq2Jqlh-1">
          <mxGeometry x="220" y="10" width="80" height="40" as="geometry" />
        </mxCell>
        <mxCell id="jm5OCSoCzJLPLTaCahWW-9" value="" style="shape=triangle;direction=south;fillColor=#0085FC;strokeColor=none;perimeter=none;fontColor=#3399FF;" vertex="1" parent="jm5OCSoCzJLPLTaCahWW-8">
          <mxGeometry x="1" y="0.5" width="10" height="5" relative="1" as="geometry">
            <mxPoint x="-17" y="-2.5" as="offset" />
          </mxGeometry>
        </mxCell>
        <mxCell id="-pvT_6miflHmKtL4eh70-59" value="Search" style="strokeWidth=1;shadow=0;dashed=0;align=center;html=1;shape=mxgraph.mockup.forms.searchBox;strokeColor=#999999;mainText=;strokeColor2=#008cff;fontColor=#666666;fontSize=17;align=left;spacingLeft=3;" vertex="1" parent="AY3byko3e69iEBMZdPLB-1">
          <mxGeometry x="10" y="180" width="150" height="30" as="geometry" />
        </mxCell>
        <mxCell id="-pvT_6miflHmKtL4eh70-60" value="" style="strokeWidth=1;shadow=0;dashed=0;align=center;html=1;shape=mxgraph.mockup.misc.rrect;rSize=0;strokeColor=#666666;fontColor=#3399FF;" vertex="1" parent="AY3byko3e69iEBMZdPLB-1">
          <mxGeometry x="20" y="240" width="400" height="75" as="geometry" />
        </mxCell>
        <mxCell id="-pvT_6miflHmKtL4eh70-61" value="REVISION HISTORY" style="strokeColor=inherit;fillColor=inherit;gradientColor=inherit;strokeWidth=1;shadow=0;dashed=0;align=center;html=1;shape=mxgraph.mockup.misc.rrect;rSize=0;fontSize=17;fontColor=#999999;" vertex="1" parent="-pvT_6miflHmKtL4eh70-60">
          <mxGeometry width="400" height="25" as="geometry" />
        </mxCell>
        <mxCell id="-pvT_6miflHmKtL4eh70-62" value="REV" style="strokeColor=inherit;fillColor=inherit;gradientColor=inherit;strokeWidth=1;shadow=0;dashed=0;align=center;html=1;shape=mxgraph.mockup.misc.rrect;rSize=0;fontSize=17;fontColor=#999999;" vertex="1" parent="-pvT_6miflHmKtL4eh70-60">
          <mxGeometry y="25" width="50" height="25" as="geometry" />
        </mxCell>
        <mxCell id="-pvT_6miflHmKtL4eh70-63" value="DATE" style="strokeColor=inherit;fillColor=inherit;gradientColor=inherit;strokeWidth=1;shadow=0;dashed=0;align=center;html=1;shape=mxgraph.mockup.misc.rrect;rSize=0;fontSize=17;fontColor=#999999;" vertex="1" parent="-pvT_6miflHmKtL4eh70-60">
          <mxGeometry x="50" y="25" width="150" height="25" as="geometry" />
        </mxCell>
        <mxCell id="-pvT_6miflHmKtL4eh70-64" value="DESCRIPTION" style="strokeColor=inherit;fillColor=inherit;gradientColor=inherit;strokeWidth=1;shadow=0;dashed=0;align=center;html=1;shape=mxgraph.mockup.misc.rrect;rSize=0;fontSize=17;fontColor=#999999;" vertex="1" parent="-pvT_6miflHmKtL4eh70-60">
          <mxGeometry x="200" y="25" width="200" height="25" as="geometry" />
        </mxCell>
        <mxCell id="-pvT_6miflHmKtL4eh70-65" value="A" style="strokeColor=inherit;fillColor=inherit;gradientColor=inherit;strokeWidth=1;shadow=0;dashed=0;align=center;html=1;shape=mxgraph.mockup.misc.rrect;rSize=0;fontSize=17;fontColor=#999999;" vertex="1" parent="-pvT_6miflHmKtL4eh70-60">
          <mxGeometry y="50" width="50" height="25" as="geometry" />
        </mxCell>
        <mxCell id="-pvT_6miflHmKtL4eh70-66" value="10/23/2014" style="strokeColor=inherit;fillColor=inherit;gradientColor=inherit;strokeWidth=1;shadow=0;dashed=0;align=center;html=1;shape=mxgraph.mockup.misc.rrect;rSize=0;fontSize=17;fontColor=#999999;" vertex="1" parent="-pvT_6miflHmKtL4eh70-60">
          <mxGeometry x="50" y="50" width="150" height="25" as="geometry" />
        </mxCell>
        <mxCell id="-pvT_6miflHmKtL4eh70-67" value="Design modified" style="strokeColor=inherit;fillColor=inherit;gradientColor=inherit;strokeWidth=1;shadow=0;dashed=0;align=center;html=1;shape=mxgraph.mockup.misc.rrect;rSize=0;fontSize=17;fontColor=#999999;" vertex="1" parent="-pvT_6miflHmKtL4eh70-60">
          <mxGeometry x="200" y="50" width="200" height="25" as="geometry" />
        </mxCell>
        <mxCell id="-pvT_6miflHmKtL4eh70-68" value="" style="strokeColor=#999999;verticalLabelPosition=bottom;shadow=0;dashed=0;verticalAlign=top;strokeWidth=2;html=1;shape=mxgraph.mockup.misc.trashcanIcon;fontColor=#3399FF;" vertex="1" parent="AY3byko3e69iEBMZdPLB-1">
          <mxGeometry x="740" y="180" width="50" height="50" as="geometry" />
        </mxCell>
        <mxCell id="-pvT_6miflHmKtL4eh70-69" value="" style="strokeColor=#999999;verticalLabelPosition=bottom;shadow=0;dashed=0;verticalAlign=top;strokeWidth=2;html=1;shape=mxgraph.mockup.misc.printIcon;fontColor=#3399FF;" vertex="1" parent="AY3byko3e69iEBMZdPLB-1">
          <mxGeometry x="680" y="180" width="50" height="50" as="geometry" />
        </mxCell>
        <mxCell id="-pvT_6miflHmKtL4eh70-70" value="" style="strokeColor=#999999;verticalLabelPosition=bottom;shadow=0;dashed=0;verticalAlign=top;strokeWidth=2;html=1;shape=mxgraph.mockup.misc.editIcon;fontColor=#3399FF;" vertex="1" parent="AY3byko3e69iEBMZdPLB-1">
          <mxGeometry x="620" y="180" width="50" height="50" as="geometry" />
        </mxCell>
        <mxCell id="-pvT_6miflHmKtL4eh70-6" value="" style="strokeWidth=1;shadow=0;dashed=0;align=center;html=1;shape=mxgraph.mockup.forms.rrect;rSize=5;strokeColor=#999999;fillColor=#ffffff;fontColor=#3399FF;" vertex="1" parent="AY3byko3e69iEBMZdPLB-1">
          <mxGeometry x="455" y="180" width="160" height="175" as="geometry" />
        </mxCell>
        <mxCell id="-pvT_6miflHmKtL4eh70-7" value="October 2014" style="strokeWidth=1;shadow=0;dashed=0;align=center;html=1;shape=mxgraph.mockup.forms.anchor;fontColor=#999999;" vertex="1" parent="-pvT_6miflHmKtL4eh70-6">
          <mxGeometry x="30" y="8" width="100" height="20" as="geometry" />
        </mxCell>
        <mxCell id="-pvT_6miflHmKtL4eh70-8" value="&lt;" style="strokeWidth=1;shadow=0;dashed=0;align=center;html=1;shape=mxgraph.mockup.forms.rrect;rSize=4;strokeColor=#999999;fontColor=#008cff;fontSize=19;fontStyle=1;" vertex="1" parent="-pvT_6miflHmKtL4eh70-6">
          <mxGeometry x="8" y="8" width="25" height="20" as="geometry" />
        </mxCell>
        <mxCell id="-pvT_6miflHmKtL4eh70-9" value="&gt;" style="strokeWidth=1;shadow=0;dashed=0;align=center;html=1;shape=mxgraph.mockup.forms.rrect;rSize=4;strokeColor=#999999;fontColor=#008cff;fontSize=19;fontStyle=1;" vertex="1" parent="-pvT_6miflHmKtL4eh70-6">
          <mxGeometry x="127" y="8" width="25" height="20" as="geometry" />
        </mxCell>
        <mxCell id="-pvT_6miflHmKtL4eh70-10" value="Mo" style="strokeWidth=1;shadow=0;dashed=0;align=center;html=1;shape=mxgraph.mockup.forms.anchor;fontColor=#999999;" vertex="1" parent="-pvT_6miflHmKtL4eh70-6">
          <mxGeometry x="10" y="28" width="20" height="20" as="geometry" />
        </mxCell>
        <mxCell id="-pvT_6miflHmKtL4eh70-11" value="Tu" style="strokeWidth=1;shadow=0;dashed=0;align=center;html=1;shape=mxgraph.mockup.forms.anchor;fontColor=#999999;" vertex="1" parent="-pvT_6miflHmKtL4eh70-6">
          <mxGeometry x="30" y="28" width="20" height="20" as="geometry" />
        </mxCell>
        <mxCell id="-pvT_6miflHmKtL4eh70-12" value="We" style="strokeWidth=1;shadow=0;dashed=0;align=center;html=1;shape=mxgraph.mockup.forms.anchor;fontColor=#999999;" vertex="1" parent="-pvT_6miflHmKtL4eh70-6">
          <mxGeometry x="50" y="28" width="20" height="20" as="geometry" />
        </mxCell>
        <mxCell id="-pvT_6miflHmKtL4eh70-13" value="Th" style="strokeWidth=1;shadow=0;dashed=0;align=center;html=1;shape=mxgraph.mockup.forms.anchor;fontColor=#999999;" vertex="1" parent="-pvT_6miflHmKtL4eh70-6">
          <mxGeometry x="70" y="28" width="20" height="20" as="geometry" />
        </mxCell>
        <mxCell id="-pvT_6miflHmKtL4eh70-14" value="Fr" style="strokeWidth=1;shadow=0;dashed=0;align=center;html=1;shape=mxgraph.mockup.forms.anchor;fontColor=#999999;" vertex="1" parent="-pvT_6miflHmKtL4eh70-6">
          <mxGeometry x="90" y="28" width="20" height="20" as="geometry" />
        </mxCell>
        <mxCell id="-pvT_6miflHmKtL4eh70-15" value="Sa" style="strokeWidth=1;shadow=0;dashed=0;align=center;html=1;shape=mxgraph.mockup.forms.anchor;fontColor=#999999;" vertex="1" parent="-pvT_6miflHmKtL4eh70-6">
          <mxGeometry x="110" y="28" width="20" height="20" as="geometry" />
        </mxCell>
        <mxCell id="-pvT_6miflHmKtL4eh70-16" value="Su" style="strokeWidth=1;shadow=0;dashed=0;align=center;html=1;shape=mxgraph.mockup.forms.anchor;fontColor=#999999;" vertex="1" parent="-pvT_6miflHmKtL4eh70-6">
          <mxGeometry x="130" y="28" width="20" height="20" as="geometry" />
        </mxCell>
        <mxCell id="-pvT_6miflHmKtL4eh70-17" value="1" style="strokeWidth=1;shadow=0;dashed=0;align=center;html=1;shape=mxgraph.mockup.forms.rrect;rSize=0;strokeColor=#999999;fontColor=#999999;" vertex="1" parent="-pvT_6miflHmKtL4eh70-6">
          <mxGeometry x="10" y="48" width="20" height="20" as="geometry" />
        </mxCell>
        <mxCell id="-pvT_6miflHmKtL4eh70-18" value="2" style="strokeWidth=1;shadow=0;dashed=0;align=center;html=1;shape=mxgraph.mockup.forms.rrect;rSize=0;strokeColor=#999999;fontColor=#999999;" vertex="1" parent="-pvT_6miflHmKtL4eh70-6">
          <mxGeometry x="30" y="48" width="20" height="20" as="geometry" />
        </mxCell>
        <mxCell id="-pvT_6miflHmKtL4eh70-19" value="3" style="strokeWidth=1;shadow=0;dashed=0;align=center;html=1;shape=mxgraph.mockup.forms.rrect;rSize=0;strokeColor=#999999;fontColor=#999999;" vertex="1" parent="-pvT_6miflHmKtL4eh70-6">
          <mxGeometry x="50" y="48" width="20" height="20" as="geometry" />
        </mxCell>
        <mxCell id="-pvT_6miflHmKtL4eh70-20" value="4" style="strokeWidth=1;shadow=0;dashed=0;align=center;html=1;shape=mxgraph.mockup.forms.rrect;rSize=0;strokeColor=#999999;fontColor=#999999;" vertex="1" parent="-pvT_6miflHmKtL4eh70-6">
          <mxGeometry x="70" y="48" width="20" height="20" as="geometry" />
        </mxCell>
        <mxCell id="-pvT_6miflHmKtL4eh70-21" value="5" style="strokeWidth=1;shadow=0;dashed=0;align=center;html=1;shape=mxgraph.mockup.forms.rrect;rSize=0;strokeColor=#999999;fontColor=#999999;" vertex="1" parent="-pvT_6miflHmKtL4eh70-6">
          <mxGeometry x="90" y="48" width="20" height="20" as="geometry" />
        </mxCell>
        <mxCell id="-pvT_6miflHmKtL4eh70-22" value="6" style="strokeWidth=1;shadow=0;dashed=0;align=center;html=1;shape=mxgraph.mockup.forms.rrect;rSize=0;strokeColor=#999999;fontColor=#999999;" vertex="1" parent="-pvT_6miflHmKtL4eh70-6">
          <mxGeometry x="110" y="48" width="20" height="20" as="geometry" />
        </mxCell>
        <mxCell id="-pvT_6miflHmKtL4eh70-23" value="7" style="strokeWidth=1;shadow=0;dashed=0;align=center;html=1;shape=mxgraph.mockup.forms.rrect;rSize=0;strokeColor=#999999;fontColor=#999999;" vertex="1" parent="-pvT_6miflHmKtL4eh70-6">
          <mxGeometry x="130" y="48" width="20" height="20" as="geometry" />
        </mxCell>
        <mxCell id="-pvT_6miflHmKtL4eh70-24" value="8" style="strokeWidth=1;shadow=0;dashed=0;align=center;html=1;shape=mxgraph.mockup.forms.rrect;rSize=0;strokeColor=#999999;fontColor=#999999;" vertex="1" parent="-pvT_6miflHmKtL4eh70-6">
          <mxGeometry x="10" y="68" width="20" height="20" as="geometry" />
        </mxCell>
        <mxCell id="-pvT_6miflHmKtL4eh70-25" value="9" style="strokeWidth=1;shadow=0;dashed=0;align=center;html=1;shape=mxgraph.mockup.forms.rrect;rSize=0;strokeColor=#999999;fontColor=#999999;" vertex="1" parent="-pvT_6miflHmKtL4eh70-6">
          <mxGeometry x="30" y="68" width="20" height="20" as="geometry" />
        </mxCell>
        <mxCell id="-pvT_6miflHmKtL4eh70-26" value="10" style="strokeWidth=1;shadow=0;dashed=0;align=center;html=1;shape=mxgraph.mockup.forms.rrect;rSize=0;strokeColor=#999999;fontColor=#999999;" vertex="1" parent="-pvT_6miflHmKtL4eh70-6">
          <mxGeometry x="50" y="68" width="20" height="20" as="geometry" />
        </mxCell>
        <mxCell id="-pvT_6miflHmKtL4eh70-27" value="11" style="strokeWidth=1;shadow=0;dashed=0;align=center;html=1;shape=mxgraph.mockup.forms.rrect;rSize=0;strokeColor=#999999;fontColor=#999999;" vertex="1" parent="-pvT_6miflHmKtL4eh70-6">
          <mxGeometry x="70" y="68" width="20" height="20" as="geometry" />
        </mxCell>
        <mxCell id="-pvT_6miflHmKtL4eh70-28" value="12" style="strokeWidth=1;shadow=0;dashed=0;align=center;html=1;shape=mxgraph.mockup.forms.rrect;rSize=0;strokeColor=#999999;fontColor=#999999;" vertex="1" parent="-pvT_6miflHmKtL4eh70-6">
          <mxGeometry x="90" y="68" width="20" height="20" as="geometry" />
        </mxCell>
        <mxCell id="-pvT_6miflHmKtL4eh70-29" value="13" style="strokeWidth=1;shadow=0;dashed=0;align=center;html=1;shape=mxgraph.mockup.forms.rrect;rSize=0;strokeColor=#999999;fontColor=#999999;" vertex="1" parent="-pvT_6miflHmKtL4eh70-6">
          <mxGeometry x="110" y="68" width="20" height="20" as="geometry" />
        </mxCell>
        <mxCell id="-pvT_6miflHmKtL4eh70-30" value="14" style="strokeWidth=1;shadow=0;dashed=0;align=center;html=1;shape=mxgraph.mockup.forms.rrect;rSize=0;strokeColor=#999999;fontColor=#999999;" vertex="1" parent="-pvT_6miflHmKtL4eh70-6">
          <mxGeometry x="130" y="68" width="20" height="20" as="geometry" />
        </mxCell>
        <mxCell id="-pvT_6miflHmKtL4eh70-31" value="15" style="strokeWidth=1;shadow=0;dashed=0;align=center;html=1;shape=mxgraph.mockup.forms.rrect;rSize=0;strokeColor=#999999;fontColor=#999999;" vertex="1" parent="-pvT_6miflHmKtL4eh70-6">
          <mxGeometry x="10" y="88" width="20" height="20" as="geometry" />
        </mxCell>
        <mxCell id="-pvT_6miflHmKtL4eh70-32" value="16" style="strokeWidth=1;shadow=0;dashed=0;align=center;html=1;shape=mxgraph.mockup.forms.rrect;rSize=0;strokeColor=#999999;fontColor=#999999;" vertex="1" parent="-pvT_6miflHmKtL4eh70-6">
          <mxGeometry x="30" y="88" width="20" height="20" as="geometry" />
        </mxCell>
        <mxCell id="-pvT_6miflHmKtL4eh70-33" value="17" style="strokeWidth=1;shadow=0;dashed=0;align=center;html=1;shape=mxgraph.mockup.forms.rrect;rSize=0;strokeColor=#999999;fontColor=#999999;" vertex="1" parent="-pvT_6miflHmKtL4eh70-6">
          <mxGeometry x="50" y="88" width="20" height="20" as="geometry" />
        </mxCell>
        <mxCell id="-pvT_6miflHmKtL4eh70-34" value="18" style="strokeWidth=1;shadow=0;dashed=0;align=center;html=1;shape=mxgraph.mockup.forms.rrect;rSize=0;strokeColor=#999999;fontColor=#999999;" vertex="1" parent="-pvT_6miflHmKtL4eh70-6">
          <mxGeometry x="70" y="88" width="20" height="20" as="geometry" />
        </mxCell>
        <mxCell id="-pvT_6miflHmKtL4eh70-35" value="19" style="strokeWidth=1;shadow=0;dashed=0;align=center;html=1;shape=mxgraph.mockup.forms.rrect;rSize=0;strokeColor=#999999;fontColor=#999999;" vertex="1" parent="-pvT_6miflHmKtL4eh70-6">
          <mxGeometry x="90" y="88" width="20" height="20" as="geometry" />
        </mxCell>
        <mxCell id="-pvT_6miflHmKtL4eh70-36" value="20" style="strokeWidth=1;shadow=0;dashed=0;align=center;html=1;shape=mxgraph.mockup.forms.rrect;rSize=0;strokeColor=#999999;fontColor=#999999;" vertex="1" parent="-pvT_6miflHmKtL4eh70-6">
          <mxGeometry x="110" y="88" width="20" height="20" as="geometry" />
        </mxCell>
        <mxCell id="-pvT_6miflHmKtL4eh70-37" value="21" style="strokeWidth=1;shadow=0;dashed=0;align=center;html=1;shape=mxgraph.mockup.forms.rrect;rSize=0;strokeColor=#999999;fontColor=#999999;" vertex="1" parent="-pvT_6miflHmKtL4eh70-6">
          <mxGeometry x="130" y="88" width="20" height="20" as="geometry" />
        </mxCell>
        <mxCell id="-pvT_6miflHmKtL4eh70-38" value="22" style="strokeWidth=1;shadow=0;dashed=0;align=center;html=1;shape=mxgraph.mockup.forms.rrect;rSize=0;strokeColor=#999999;fontColor=#999999;" vertex="1" parent="-pvT_6miflHmKtL4eh70-6">
          <mxGeometry x="10" y="108" width="20" height="20" as="geometry" />
        </mxCell>
        <mxCell id="-pvT_6miflHmKtL4eh70-39" value="23" style="strokeWidth=1;shadow=0;dashed=0;align=center;html=1;shape=mxgraph.mockup.forms.rrect;rSize=0;strokeColor=#999999;fontColor=#999999;" vertex="1" parent="-pvT_6miflHmKtL4eh70-6">
          <mxGeometry x="30" y="108" width="20" height="20" as="geometry" />
        </mxCell>
        <mxCell id="-pvT_6miflHmKtL4eh70-40" value="25" style="strokeWidth=1;shadow=0;dashed=0;align=center;html=1;shape=mxgraph.mockup.forms.rrect;rSize=0;strokeColor=#999999;fontColor=#999999;" vertex="1" parent="-pvT_6miflHmKtL4eh70-6">
          <mxGeometry x="70" y="108" width="20" height="20" as="geometry" />
        </mxCell>
        <mxCell id="-pvT_6miflHmKtL4eh70-41" value="26" style="strokeWidth=1;shadow=0;dashed=0;align=center;html=1;shape=mxgraph.mockup.forms.rrect;rSize=0;strokeColor=#999999;fontColor=#999999;" vertex="1" parent="-pvT_6miflHmKtL4eh70-6">
          <mxGeometry x="90" y="108" width="20" height="20" as="geometry" />
        </mxCell>
        <mxCell id="-pvT_6miflHmKtL4eh70-42" value="27" style="strokeWidth=1;shadow=0;dashed=0;align=center;html=1;shape=mxgraph.mockup.forms.rrect;rSize=0;strokeColor=#999999;fontColor=#999999;" vertex="1" parent="-pvT_6miflHmKtL4eh70-6">
          <mxGeometry x="110" y="108" width="20" height="20" as="geometry" />
        </mxCell>
        <mxCell id="-pvT_6miflHmKtL4eh70-43" value="28" style="strokeWidth=1;shadow=0;dashed=0;align=center;html=1;shape=mxgraph.mockup.forms.rrect;rSize=0;strokeColor=#999999;fontColor=#999999;" vertex="1" parent="-pvT_6miflHmKtL4eh70-6">
          <mxGeometry x="130" y="108" width="20" height="20" as="geometry" />
        </mxCell>
        <mxCell id="-pvT_6miflHmKtL4eh70-44" value="29" style="strokeWidth=1;shadow=0;dashed=0;align=center;html=1;shape=mxgraph.mockup.forms.rrect;rSize=0;strokeColor=#999999;fontColor=#999999;" vertex="1" parent="-pvT_6miflHmKtL4eh70-6">
          <mxGeometry x="10" y="128" width="20" height="20" as="geometry" />
        </mxCell>
        <mxCell id="-pvT_6miflHmKtL4eh70-45" value="30" style="strokeWidth=1;shadow=0;dashed=0;align=center;html=1;shape=mxgraph.mockup.forms.rrect;rSize=0;strokeColor=#999999;fontColor=#999999;" vertex="1" parent="-pvT_6miflHmKtL4eh70-6">
          <mxGeometry x="30" y="128" width="20" height="20" as="geometry" />
        </mxCell>
        <mxCell id="-pvT_6miflHmKtL4eh70-46" value="31" style="strokeWidth=1;shadow=0;dashed=0;align=center;html=1;shape=mxgraph.mockup.forms.rrect;rSize=0;strokeColor=#999999;fontColor=#999999;" vertex="1" parent="-pvT_6miflHmKtL4eh70-6">
          <mxGeometry x="50" y="128" width="20" height="20" as="geometry" />
        </mxCell>
        <mxCell id="-pvT_6miflHmKtL4eh70-47" value="1" style="strokeWidth=1;shadow=0;dashed=0;align=center;html=1;shape=mxgraph.mockup.forms.rrect;rSize=0;strokeColor=#999999;fontColor=#999999;fillColor=#ddeeff;" vertex="1" parent="-pvT_6miflHmKtL4eh70-6">
          <mxGeometry x="70" y="128" width="20" height="20" as="geometry" />
        </mxCell>
        <mxCell id="-pvT_6miflHmKtL4eh70-48" value="2" style="strokeWidth=1;shadow=0;dashed=0;align=center;html=1;shape=mxgraph.mockup.forms.rrect;rSize=0;strokeColor=#999999;fontColor=#999999;fillColor=#ddeeff;" vertex="1" parent="-pvT_6miflHmKtL4eh70-6">
          <mxGeometry x="90" y="128" width="20" height="20" as="geometry" />
        </mxCell>
        <mxCell id="-pvT_6miflHmKtL4eh70-49" value="3" style="strokeWidth=1;shadow=0;dashed=0;align=center;html=1;shape=mxgraph.mockup.forms.rrect;rSize=0;strokeColor=#999999;fontColor=#999999;fillColor=#ddeeff;" vertex="1" parent="-pvT_6miflHmKtL4eh70-6">
          <mxGeometry x="110" y="128" width="20" height="20" as="geometry" />
        </mxCell>
        <mxCell id="-pvT_6miflHmKtL4eh70-50" value="4" style="strokeWidth=1;shadow=0;dashed=0;align=center;html=1;shape=mxgraph.mockup.forms.rrect;rSize=0;strokeColor=#999999;fontColor=#999999;fillColor=#ddeeff;" vertex="1" parent="-pvT_6miflHmKtL4eh70-6">
          <mxGeometry x="130" y="128" width="20" height="20" as="geometry" />
        </mxCell>
        <mxCell id="-pvT_6miflHmKtL4eh70-51" value="5" style="strokeWidth=1;shadow=0;dashed=0;align=center;html=1;shape=mxgraph.mockup.forms.rrect;rSize=0;strokeColor=#999999;fontColor=#999999;fillColor=#ddeeff;" vertex="1" parent="-pvT_6miflHmKtL4eh70-6">
          <mxGeometry x="10" y="148" width="20" height="20" as="geometry" />
        </mxCell>
        <mxCell id="-pvT_6miflHmKtL4eh70-52" value="6" style="strokeWidth=1;shadow=0;dashed=0;align=center;html=1;shape=mxgraph.mockup.forms.rrect;rSize=0;strokeColor=#999999;fontColor=#999999;fillColor=#ddeeff;" vertex="1" parent="-pvT_6miflHmKtL4eh70-6">
          <mxGeometry x="30" y="148" width="20" height="20" as="geometry" />
        </mxCell>
        <mxCell id="-pvT_6miflHmKtL4eh70-53" value="7" style="strokeWidth=1;shadow=0;dashed=0;align=center;html=1;shape=mxgraph.mockup.forms.rrect;rSize=0;strokeColor=#999999;fontColor=#999999;fillColor=#ddeeff;" vertex="1" parent="-pvT_6miflHmKtL4eh70-6">
          <mxGeometry x="50" y="148" width="20" height="20" as="geometry" />
        </mxCell>
        <mxCell id="-pvT_6miflHmKtL4eh70-54" value="8" style="strokeWidth=1;shadow=0;dashed=0;align=center;html=1;shape=mxgraph.mockup.forms.rrect;rSize=0;strokeColor=#999999;fontColor=#999999;fillColor=#ddeeff;" vertex="1" parent="-pvT_6miflHmKtL4eh70-6">
          <mxGeometry x="70" y="148" width="20" height="20" as="geometry" />
        </mxCell>
        <mxCell id="-pvT_6miflHmKtL4eh70-55" value="9" style="strokeWidth=1;shadow=0;dashed=0;align=center;html=1;shape=mxgraph.mockup.forms.rrect;rSize=0;strokeColor=#999999;fontColor=#999999;fillColor=#ddeeff;" vertex="1" parent="-pvT_6miflHmKtL4eh70-6">
          <mxGeometry x="90" y="148" width="20" height="20" as="geometry" />
        </mxCell>
        <mxCell id="-pvT_6miflHmKtL4eh70-56" value="10" style="strokeWidth=1;shadow=0;dashed=0;align=center;html=1;shape=mxgraph.mockup.forms.rrect;rSize=0;strokeColor=#999999;fontColor=#999999;fillColor=#ddeeff;" vertex="1" parent="-pvT_6miflHmKtL4eh70-6">
          <mxGeometry x="110" y="148" width="20" height="20" as="geometry" />
        </mxCell>
        <mxCell id="-pvT_6miflHmKtL4eh70-57" value="11" style="strokeWidth=1;shadow=0;dashed=0;align=center;html=1;shape=mxgraph.mockup.forms.rrect;rSize=0;strokeColor=#999999;fontColor=#999999;fillColor=#ddeeff;" vertex="1" parent="-pvT_6miflHmKtL4eh70-6">
          <mxGeometry x="130" y="148" width="20" height="20" as="geometry" />
        </mxCell>
        <mxCell id="-pvT_6miflHmKtL4eh70-58" value="24" style="strokeWidth=1;shadow=0;dashed=0;align=center;html=1;shape=mxgraph.mockup.forms.rrect;rSize=0;strokeColor=#ff0000;fontColor=#ffffff;strokeWidth=2;fillColor=#008cff;" vertex="1" parent="-pvT_6miflHmKtL4eh70-6">
          <mxGeometry x="50" y="108" width="20" height="20" as="geometry" />
        </mxCell>
      </root>
    </mxGraphModel>
  </diagram>
  <diagram id="CcRBT4q2fpJUznAiSPxn" name="Page-6">
    <mxGraphModel dx="942" dy="600" grid="1" gridSize="10" guides="1" tooltips="1" connect="1" arrows="1" fold="1" page="1" pageScale="1" pageWidth="850" pageHeight="1100" math="0" shadow="0">
      <root>
        <mxCell id="0" />
        <mxCell id="1" parent="0" />
        <mxCell id="I1cSbsmam4e711qpxHXn-1" value="" style="strokeWidth=1;shadow=0;dashed=0;align=center;html=1;shape=mxgraph.mockup.containers.browserWindow;rSize=0;strokeColor=#666666;strokeColor2=#008cff;strokeColor3=#c4c4c4;mainText=,;recursiveResize=0;" vertex="1" parent="1">
          <mxGeometry x="5" y="10" width="840" height="880" as="geometry" />
        </mxCell>
        <mxCell id="I1cSbsmam4e711qpxHXn-2" value="Page 1" style="strokeWidth=1;shadow=0;dashed=0;align=center;html=1;shape=mxgraph.mockup.containers.anchor;fontSize=17;fontColor=#666666;align=left;" vertex="1" parent="I1cSbsmam4e711qpxHXn-1">
          <mxGeometry x="60" y="12" width="110" height="26" as="geometry" />
        </mxCell>
        <mxCell id="I1cSbsmam4e711qpxHXn-3" value="https://www.Citas/Solicitar.io" style="strokeWidth=1;shadow=0;dashed=0;align=center;html=1;shape=mxgraph.mockup.containers.anchor;rSize=0;fontSize=17;fontColor=#666666;align=left;" vertex="1" parent="I1cSbsmam4e711qpxHXn-1">
          <mxGeometry x="130" y="60" width="250" height="26" as="geometry" />
        </mxCell>
        <mxCell id="I1cSbsmam4e711qpxHXn-4" value="Navbar" style="html=1;shadow=0;dashed=0;fillColor=#E3F3FD;strokeColor=none;fontSize=16;fontColor=#161819;align=left;spacing=15;" vertex="1" parent="I1cSbsmam4e711qpxHXn-1">
          <mxGeometry y="110" width="840" height="60" as="geometry" />
        </mxCell>
        <mxCell id="I1cSbsmam4e711qpxHXn-5" value="Home" style="fillColor=none;strokeColor=none;fontSize=14;fontColor=#71797E;align=center;" vertex="1" parent="I1cSbsmam4e711qpxHXn-4">
          <mxGeometry width="60" height="40" relative="1" as="geometry">
            <mxPoint x="80" y="10" as="offset" />
          </mxGeometry>
        </mxCell>
        <mxCell id="I1cSbsmam4e711qpxHXn-6" value="Registrar" style="fillColor=none;strokeColor=none;fontSize=14;fontColor=#71797E;align=center;spacingRight=0;" vertex="1" parent="I1cSbsmam4e711qpxHXn-4">
          <mxGeometry width="80" height="40" relative="1" as="geometry">
            <mxPoint x="140" y="10" as="offset" />
          </mxGeometry>
        </mxCell>
        <mxCell id="I1cSbsmam4e711qpxHXn-7" value="About" style="fillColor=none;strokeColor=none;fontSize=14;fontColor=#71797E;align=center;" vertex="1" parent="I1cSbsmam4e711qpxHXn-4">
          <mxGeometry width="80" height="40" relative="1" as="geometry">
            <mxPoint x="290" y="10" as="offset" />
          </mxGeometry>
        </mxCell>
        <mxCell id="I1cSbsmam4e711qpxHXn-8" value="Citas" style="strokeColor=none;fillColor=none;rSize=5;perimeter=none;whiteSpace=wrap;resizeWidth=1;align=center;spacing=20;fontSize=14;fontColor=#000000;spacingRight=10;" vertex="1" parent="I1cSbsmam4e711qpxHXn-4">
          <mxGeometry x="215" y="10" width="84" height="40" as="geometry" />
        </mxCell>
        <mxCell id="I1cSbsmam4e711qpxHXn-9" value="" style="shape=triangle;direction=south;fillColor=#0085FC;strokeColor=none;perimeter=none;fontColor=#3399FF;" vertex="1" parent="I1cSbsmam4e711qpxHXn-8">
          <mxGeometry x="1" y="0.5" width="10" height="5" relative="1" as="geometry">
            <mxPoint x="-17" y="-2.5" as="offset" />
          </mxGeometry>
        </mxCell>
        <mxCell id="I1cSbsmam4e711qpxHXn-19" value="" style="strokeColor=#999999;verticalLabelPosition=bottom;shadow=0;dashed=0;verticalAlign=top;strokeWidth=2;html=1;shape=mxgraph.mockup.misc.trashcanIcon;fontColor=#3399FF;" vertex="1" parent="I1cSbsmam4e711qpxHXn-1">
          <mxGeometry x="790" y="170" width="50" height="50" as="geometry" />
        </mxCell>
        <mxCell id="I1cSbsmam4e711qpxHXn-20" value="" style="strokeColor=#999999;verticalLabelPosition=bottom;shadow=0;dashed=0;verticalAlign=top;strokeWidth=2;html=1;shape=mxgraph.mockup.misc.printIcon;fontColor=#3399FF;" vertex="1" parent="I1cSbsmam4e711qpxHXn-1">
          <mxGeometry x="720" y="170" width="50" height="50" as="geometry" />
        </mxCell>
        <mxCell id="neS2OGm_LO2JGAX8_0Ef-1" value="Email" style="fillColor=none;strokeColor=none;align=left;fontSize=14;fontColor=#212529;" vertex="1" parent="I1cSbsmam4e711qpxHXn-1">
          <mxGeometry x="20" y="270" width="400" height="30" as="geometry" />
        </mxCell>
        <mxCell id="neS2OGm_LO2JGAX8_0Ef-2" value="" style="html=1;shadow=0;dashed=0;shape=mxgraph.bootstrap.rrect;rSize=5;fillColor=none;strokeColor=#999999;align=left;spacing=15;fontSize=14;fontColor=#6C767D;" vertex="1" parent="I1cSbsmam4e711qpxHXn-1">
          <mxGeometry x="20" y="300" width="395" height="30" as="geometry" />
        </mxCell>
        <mxCell id="neS2OGm_LO2JGAX8_0Ef-5" value="Address" style="fillColor=none;strokeColor=none;align=left;fontSize=14;fontColor=#212529;" vertex="1" parent="I1cSbsmam4e711qpxHXn-1">
          <mxGeometry x="20" y="340" width="390" height="30" as="geometry" />
        </mxCell>
        <mxCell id="neS2OGm_LO2JGAX8_0Ef-6" value="1234 Main St" style="html=1;shadow=0;dashed=0;shape=mxgraph.bootstrap.rrect;rSize=5;fillColor=none;strokeColor=#999999;align=left;spacing=15;fontSize=14;fontColor=#6C767D;" vertex="1" parent="I1cSbsmam4e711qpxHXn-1">
          <mxGeometry x="20" y="370" width="780" height="30" as="geometry" />
        </mxCell>
        <mxCell id="neS2OGm_LO2JGAX8_0Ef-7" value="Address 2" style="fillColor=none;strokeColor=none;align=left;fontSize=14;fontColor=#212529;" vertex="1" parent="I1cSbsmam4e711qpxHXn-1">
          <mxGeometry x="20" y="410" width="390" height="30" as="geometry" />
        </mxCell>
        <mxCell id="neS2OGm_LO2JGAX8_0Ef-8" value="Apartment, studio or floor" style="html=1;shadow=0;dashed=0;shape=mxgraph.bootstrap.rrect;rSize=5;fillColor=none;strokeColor=#999999;align=left;spacing=15;fontSize=14;fontColor=#6C767D;" vertex="1" parent="I1cSbsmam4e711qpxHXn-1">
          <mxGeometry x="20" y="440" width="780" height="30" as="geometry" />
        </mxCell>
        <mxCell id="neS2OGm_LO2JGAX8_0Ef-9" value="City" style="fillColor=none;strokeColor=none;align=left;fontSize=14;fontColor=#212529;" vertex="1" parent="I1cSbsmam4e711qpxHXn-1">
          <mxGeometry x="20" y="480" width="390" height="30" as="geometry" />
        </mxCell>
        <mxCell id="neS2OGm_LO2JGAX8_0Ef-10" value="" style="html=1;shadow=0;dashed=0;shape=mxgraph.bootstrap.rrect;rSize=5;fillColor=none;strokeColor=#999999;align=left;spacing=15;fontSize=14;fontColor=#6C767D;" vertex="1" parent="I1cSbsmam4e711qpxHXn-1">
          <mxGeometry x="20" y="510" width="390" height="30" as="geometry" />
        </mxCell>
        <mxCell id="neS2OGm_LO2JGAX8_0Ef-11" value="State" style="fillColor=none;strokeColor=none;align=left;fontSize=14;fontColor=#212529;" vertex="1" parent="I1cSbsmam4e711qpxHXn-1">
          <mxGeometry x="430" y="480" width="220" height="30" as="geometry" />
        </mxCell>
        <mxCell id="neS2OGm_LO2JGAX8_0Ef-12" value="Choose..." style="html=1;shadow=0;dashed=0;shape=mxgraph.bootstrap.rrect;rSize=5;fillColor=none;strokeColor=#999999;align=left;spacing=15;fontSize=14;fontColor=#6C767D;" vertex="1" parent="I1cSbsmam4e711qpxHXn-1">
          <mxGeometry x="430" y="510" width="270" height="30" as="geometry" />
        </mxCell>
        <mxCell id="neS2OGm_LO2JGAX8_0Ef-13" value="" style="shape=triangle;direction=south;fillColor=#212529;strokeColor=none;perimeter=none;" vertex="1" parent="neS2OGm_LO2JGAX8_0Ef-12">
          <mxGeometry x="1" y="0.5" width="10" height="5" relative="1" as="geometry">
            <mxPoint x="-17" y="-2.5" as="offset" />
          </mxGeometry>
        </mxCell>
        <mxCell id="neS2OGm_LO2JGAX8_0Ef-14" value="Zip" style="fillColor=none;strokeColor=none;align=left;fontSize=14;fontColor=#212529;" vertex="1" parent="I1cSbsmam4e711qpxHXn-1">
          <mxGeometry x="720" y="480" width="100" height="30" as="geometry" />
        </mxCell>
        <mxCell id="neS2OGm_LO2JGAX8_0Ef-15" value="" style="html=1;shadow=0;dashed=0;shape=mxgraph.bootstrap.rrect;rSize=5;fillColor=none;strokeColor=#999999;align=left;spacing=15;fontSize=14;fontColor=#6C767D;" vertex="1" parent="I1cSbsmam4e711qpxHXn-1">
          <mxGeometry x="720" y="510" width="80" height="30" as="geometry" />
        </mxCell>
        <mxCell id="neS2OGm_LO2JGAX8_0Ef-16" value="First name" style="html=1;shadow=0;dashed=0;shape=mxgraph.bootstrap.rrect;rSize=5;fillColor=none;strokeColor=#999999;align=left;spacing=15;fontSize=14;fontColor=#6C767D;" vertex="1" parent="I1cSbsmam4e711qpxHXn-1">
          <mxGeometry x="20" y="230" width="390" height="30" as="geometry" />
        </mxCell>
        <mxCell id="neS2OGm_LO2JGAX8_0Ef-17" value="Last name" style="html=1;shadow=0;dashed=0;shape=mxgraph.bootstrap.rrect;rSize=5;fillColor=none;strokeColor=#999999;align=left;spacing=15;fontSize=14;fontColor=#6C767D;" vertex="1" parent="I1cSbsmam4e711qpxHXn-1">
          <mxGeometry x="430" y="230" width="380" height="30" as="geometry" />
        </mxCell>
        <mxCell id="neS2OGm_LO2JGAX8_0Ef-19" value="Open this select menu" style="html=1;shadow=0;dashed=0;shape=mxgraph.bootstrap.rrect;rSize=5;fillColor=#ffffff;strokeColor=#CED4DA;align=left;spacing=15;fontSize=14;fontColor=#6C767D;" vertex="1" parent="I1cSbsmam4e711qpxHXn-1">
          <mxGeometry x="20" y="570" width="390" height="40" as="geometry" />
        </mxCell>
        <mxCell id="neS2OGm_LO2JGAX8_0Ef-20" value="" style="shape=triangle;direction=south;fillColor=#343A40;strokeColor=none;perimeter=none;" vertex="1" parent="neS2OGm_LO2JGAX8_0Ef-19">
          <mxGeometry x="1" y="0.5" width="7" height="3" relative="1" as="geometry">
            <mxPoint x="-17" y="1" as="offset" />
          </mxGeometry>
        </mxCell>
        <mxCell id="neS2OGm_LO2JGAX8_0Ef-21" value="" style="shape=triangle;direction=north;fillColor=#343A40;strokeColor=none;perimeter=none;" vertex="1" parent="neS2OGm_LO2JGAX8_0Ef-19">
          <mxGeometry x="1" y="0.5" width="7" height="3" relative="1" as="geometry">
            <mxPoint x="-17" y="-4" as="offset" />
          </mxGeometry>
        </mxCell>
        <mxCell id="neS2OGm_LO2JGAX8_0Ef-22" value="Departamento" style="fillColor=none;strokeColor=none;align=left;fontSize=14;fontColor=#212529;" vertex="1" parent="I1cSbsmam4e711qpxHXn-1">
          <mxGeometry x="22.5" y="540" width="390" height="30" as="geometry" />
        </mxCell>
        <mxCell id="neS2OGm_LO2JGAX8_0Ef-26" value="Fecha" style="fillColor=none;strokeColor=none;align=left;fontSize=14;fontColor=#212529;" vertex="1" parent="I1cSbsmam4e711qpxHXn-1">
          <mxGeometry x="429" y="540" width="390" height="30" as="geometry" />
        </mxCell>
        <mxCell id="sp_CgY-NGYcXEa7RsZGF-2" value="" style="strokeWidth=1;shadow=0;dashed=0;align=center;html=1;shape=mxgraph.mockup.forms.rrect;rSize=5;strokeColor=#999999;fillColor=#ffffff;fontColor=#3399FF;" vertex="1" parent="I1cSbsmam4e711qpxHXn-1">
          <mxGeometry x="530" y="605" width="160" height="175" as="geometry" />
        </mxCell>
        <mxCell id="sp_CgY-NGYcXEa7RsZGF-3" value="October 2014" style="strokeWidth=1;shadow=0;dashed=0;align=center;html=1;shape=mxgraph.mockup.forms.anchor;fontColor=#999999;" vertex="1" parent="sp_CgY-NGYcXEa7RsZGF-2">
          <mxGeometry x="30" y="8" width="100" height="20" as="geometry" />
        </mxCell>
        <mxCell id="sp_CgY-NGYcXEa7RsZGF-4" value="&lt;" style="strokeWidth=1;shadow=0;dashed=0;align=center;html=1;shape=mxgraph.mockup.forms.rrect;rSize=4;strokeColor=#999999;fontColor=#008cff;fontSize=19;fontStyle=1;" vertex="1" parent="sp_CgY-NGYcXEa7RsZGF-2">
          <mxGeometry x="8" y="8" width="25" height="20" as="geometry" />
        </mxCell>
        <mxCell id="sp_CgY-NGYcXEa7RsZGF-5" value="&gt;" style="strokeWidth=1;shadow=0;dashed=0;align=center;html=1;shape=mxgraph.mockup.forms.rrect;rSize=4;strokeColor=#999999;fontColor=#008cff;fontSize=19;fontStyle=1;" vertex="1" parent="sp_CgY-NGYcXEa7RsZGF-2">
          <mxGeometry x="127" y="8" width="25" height="20" as="geometry" />
        </mxCell>
        <mxCell id="sp_CgY-NGYcXEa7RsZGF-6" value="Mo" style="strokeWidth=1;shadow=0;dashed=0;align=center;html=1;shape=mxgraph.mockup.forms.anchor;fontColor=#999999;" vertex="1" parent="sp_CgY-NGYcXEa7RsZGF-2">
          <mxGeometry x="10" y="28" width="20" height="20" as="geometry" />
        </mxCell>
        <mxCell id="sp_CgY-NGYcXEa7RsZGF-7" value="Tu" style="strokeWidth=1;shadow=0;dashed=0;align=center;html=1;shape=mxgraph.mockup.forms.anchor;fontColor=#999999;" vertex="1" parent="sp_CgY-NGYcXEa7RsZGF-2">
          <mxGeometry x="30" y="28" width="20" height="20" as="geometry" />
        </mxCell>
        <mxCell id="sp_CgY-NGYcXEa7RsZGF-8" value="We" style="strokeWidth=1;shadow=0;dashed=0;align=center;html=1;shape=mxgraph.mockup.forms.anchor;fontColor=#999999;" vertex="1" parent="sp_CgY-NGYcXEa7RsZGF-2">
          <mxGeometry x="50" y="28" width="20" height="20" as="geometry" />
        </mxCell>
        <mxCell id="sp_CgY-NGYcXEa7RsZGF-9" value="Th" style="strokeWidth=1;shadow=0;dashed=0;align=center;html=1;shape=mxgraph.mockup.forms.anchor;fontColor=#999999;" vertex="1" parent="sp_CgY-NGYcXEa7RsZGF-2">
          <mxGeometry x="70" y="28" width="20" height="20" as="geometry" />
        </mxCell>
        <mxCell id="sp_CgY-NGYcXEa7RsZGF-10" value="Fr" style="strokeWidth=1;shadow=0;dashed=0;align=center;html=1;shape=mxgraph.mockup.forms.anchor;fontColor=#999999;" vertex="1" parent="sp_CgY-NGYcXEa7RsZGF-2">
          <mxGeometry x="90" y="28" width="20" height="20" as="geometry" />
        </mxCell>
        <mxCell id="sp_CgY-NGYcXEa7RsZGF-11" value="Sa" style="strokeWidth=1;shadow=0;dashed=0;align=center;html=1;shape=mxgraph.mockup.forms.anchor;fontColor=#999999;" vertex="1" parent="sp_CgY-NGYcXEa7RsZGF-2">
          <mxGeometry x="110" y="28" width="20" height="20" as="geometry" />
        </mxCell>
        <mxCell id="sp_CgY-NGYcXEa7RsZGF-12" value="Su" style="strokeWidth=1;shadow=0;dashed=0;align=center;html=1;shape=mxgraph.mockup.forms.anchor;fontColor=#999999;" vertex="1" parent="sp_CgY-NGYcXEa7RsZGF-2">
          <mxGeometry x="130" y="28" width="20" height="20" as="geometry" />
        </mxCell>
        <mxCell id="sp_CgY-NGYcXEa7RsZGF-13" value="1" style="strokeWidth=1;shadow=0;dashed=0;align=center;html=1;shape=mxgraph.mockup.forms.rrect;rSize=0;strokeColor=#999999;fontColor=#999999;" vertex="1" parent="sp_CgY-NGYcXEa7RsZGF-2">
          <mxGeometry x="10" y="48" width="20" height="20" as="geometry" />
        </mxCell>
        <mxCell id="sp_CgY-NGYcXEa7RsZGF-14" value="2" style="strokeWidth=1;shadow=0;dashed=0;align=center;html=1;shape=mxgraph.mockup.forms.rrect;rSize=0;strokeColor=#999999;fontColor=#999999;" vertex="1" parent="sp_CgY-NGYcXEa7RsZGF-2">
          <mxGeometry x="30" y="48" width="20" height="20" as="geometry" />
        </mxCell>
        <mxCell id="sp_CgY-NGYcXEa7RsZGF-15" value="3" style="strokeWidth=1;shadow=0;dashed=0;align=center;html=1;shape=mxgraph.mockup.forms.rrect;rSize=0;strokeColor=#999999;fontColor=#999999;" vertex="1" parent="sp_CgY-NGYcXEa7RsZGF-2">
          <mxGeometry x="50" y="48" width="20" height="20" as="geometry" />
        </mxCell>
        <mxCell id="sp_CgY-NGYcXEa7RsZGF-16" value="4" style="strokeWidth=1;shadow=0;dashed=0;align=center;html=1;shape=mxgraph.mockup.forms.rrect;rSize=0;strokeColor=#999999;fontColor=#999999;" vertex="1" parent="sp_CgY-NGYcXEa7RsZGF-2">
          <mxGeometry x="70" y="48" width="20" height="20" as="geometry" />
        </mxCell>
        <mxCell id="sp_CgY-NGYcXEa7RsZGF-17" value="5" style="strokeWidth=1;shadow=0;dashed=0;align=center;html=1;shape=mxgraph.mockup.forms.rrect;rSize=0;strokeColor=#999999;fontColor=#999999;" vertex="1" parent="sp_CgY-NGYcXEa7RsZGF-2">
          <mxGeometry x="90" y="48" width="20" height="20" as="geometry" />
        </mxCell>
        <mxCell id="sp_CgY-NGYcXEa7RsZGF-18" value="6" style="strokeWidth=1;shadow=0;dashed=0;align=center;html=1;shape=mxgraph.mockup.forms.rrect;rSize=0;strokeColor=#999999;fontColor=#999999;" vertex="1" parent="sp_CgY-NGYcXEa7RsZGF-2">
          <mxGeometry x="110" y="48" width="20" height="20" as="geometry" />
        </mxCell>
        <mxCell id="sp_CgY-NGYcXEa7RsZGF-19" value="7" style="strokeWidth=1;shadow=0;dashed=0;align=center;html=1;shape=mxgraph.mockup.forms.rrect;rSize=0;strokeColor=#999999;fontColor=#999999;" vertex="1" parent="sp_CgY-NGYcXEa7RsZGF-2">
          <mxGeometry x="130" y="48" width="20" height="20" as="geometry" />
        </mxCell>
        <mxCell id="sp_CgY-NGYcXEa7RsZGF-20" value="8" style="strokeWidth=1;shadow=0;dashed=0;align=center;html=1;shape=mxgraph.mockup.forms.rrect;rSize=0;strokeColor=#999999;fontColor=#999999;" vertex="1" parent="sp_CgY-NGYcXEa7RsZGF-2">
          <mxGeometry x="10" y="68" width="20" height="20" as="geometry" />
        </mxCell>
        <mxCell id="sp_CgY-NGYcXEa7RsZGF-21" value="9" style="strokeWidth=1;shadow=0;dashed=0;align=center;html=1;shape=mxgraph.mockup.forms.rrect;rSize=0;strokeColor=#999999;fontColor=#999999;" vertex="1" parent="sp_CgY-NGYcXEa7RsZGF-2">
          <mxGeometry x="30" y="68" width="20" height="20" as="geometry" />
        </mxCell>
        <mxCell id="sp_CgY-NGYcXEa7RsZGF-22" value="10" style="strokeWidth=1;shadow=0;dashed=0;align=center;html=1;shape=mxgraph.mockup.forms.rrect;rSize=0;strokeColor=#999999;fontColor=#999999;" vertex="1" parent="sp_CgY-NGYcXEa7RsZGF-2">
          <mxGeometry x="50" y="68" width="20" height="20" as="geometry" />
        </mxCell>
        <mxCell id="sp_CgY-NGYcXEa7RsZGF-23" value="11" style="strokeWidth=1;shadow=0;dashed=0;align=center;html=1;shape=mxgraph.mockup.forms.rrect;rSize=0;strokeColor=#999999;fontColor=#999999;" vertex="1" parent="sp_CgY-NGYcXEa7RsZGF-2">
          <mxGeometry x="70" y="68" width="20" height="20" as="geometry" />
        </mxCell>
        <mxCell id="sp_CgY-NGYcXEa7RsZGF-24" value="12" style="strokeWidth=1;shadow=0;dashed=0;align=center;html=1;shape=mxgraph.mockup.forms.rrect;rSize=0;strokeColor=#999999;fontColor=#999999;" vertex="1" parent="sp_CgY-NGYcXEa7RsZGF-2">
          <mxGeometry x="90" y="68" width="20" height="20" as="geometry" />
        </mxCell>
        <mxCell id="sp_CgY-NGYcXEa7RsZGF-25" value="13" style="strokeWidth=1;shadow=0;dashed=0;align=center;html=1;shape=mxgraph.mockup.forms.rrect;rSize=0;strokeColor=#999999;fontColor=#999999;" vertex="1" parent="sp_CgY-NGYcXEa7RsZGF-2">
          <mxGeometry x="110" y="68" width="20" height="20" as="geometry" />
        </mxCell>
        <mxCell id="sp_CgY-NGYcXEa7RsZGF-26" value="14" style="strokeWidth=1;shadow=0;dashed=0;align=center;html=1;shape=mxgraph.mockup.forms.rrect;rSize=0;strokeColor=#999999;fontColor=#999999;" vertex="1" parent="sp_CgY-NGYcXEa7RsZGF-2">
          <mxGeometry x="130" y="68" width="20" height="20" as="geometry" />
        </mxCell>
        <mxCell id="sp_CgY-NGYcXEa7RsZGF-27" value="15" style="strokeWidth=1;shadow=0;dashed=0;align=center;html=1;shape=mxgraph.mockup.forms.rrect;rSize=0;strokeColor=#999999;fontColor=#999999;" vertex="1" parent="sp_CgY-NGYcXEa7RsZGF-2">
          <mxGeometry x="10" y="88" width="20" height="20" as="geometry" />
        </mxCell>
        <mxCell id="sp_CgY-NGYcXEa7RsZGF-28" value="16" style="strokeWidth=1;shadow=0;dashed=0;align=center;html=1;shape=mxgraph.mockup.forms.rrect;rSize=0;strokeColor=#999999;fontColor=#999999;" vertex="1" parent="sp_CgY-NGYcXEa7RsZGF-2">
          <mxGeometry x="30" y="88" width="20" height="20" as="geometry" />
        </mxCell>
        <mxCell id="sp_CgY-NGYcXEa7RsZGF-29" value="17" style="strokeWidth=1;shadow=0;dashed=0;align=center;html=1;shape=mxgraph.mockup.forms.rrect;rSize=0;strokeColor=#999999;fontColor=#999999;" vertex="1" parent="sp_CgY-NGYcXEa7RsZGF-2">
          <mxGeometry x="50" y="88" width="20" height="20" as="geometry" />
        </mxCell>
        <mxCell id="sp_CgY-NGYcXEa7RsZGF-30" value="18" style="strokeWidth=1;shadow=0;dashed=0;align=center;html=1;shape=mxgraph.mockup.forms.rrect;rSize=0;strokeColor=#999999;fontColor=#999999;" vertex="1" parent="sp_CgY-NGYcXEa7RsZGF-2">
          <mxGeometry x="70" y="88" width="20" height="20" as="geometry" />
        </mxCell>
        <mxCell id="sp_CgY-NGYcXEa7RsZGF-31" value="19" style="strokeWidth=1;shadow=0;dashed=0;align=center;html=1;shape=mxgraph.mockup.forms.rrect;rSize=0;strokeColor=#999999;fontColor=#999999;" vertex="1" parent="sp_CgY-NGYcXEa7RsZGF-2">
          <mxGeometry x="90" y="88" width="20" height="20" as="geometry" />
        </mxCell>
        <mxCell id="sp_CgY-NGYcXEa7RsZGF-32" value="20" style="strokeWidth=1;shadow=0;dashed=0;align=center;html=1;shape=mxgraph.mockup.forms.rrect;rSize=0;strokeColor=#999999;fontColor=#999999;" vertex="1" parent="sp_CgY-NGYcXEa7RsZGF-2">
          <mxGeometry x="110" y="88" width="20" height="20" as="geometry" />
        </mxCell>
        <mxCell id="sp_CgY-NGYcXEa7RsZGF-33" value="21" style="strokeWidth=1;shadow=0;dashed=0;align=center;html=1;shape=mxgraph.mockup.forms.rrect;rSize=0;strokeColor=#999999;fontColor=#999999;" vertex="1" parent="sp_CgY-NGYcXEa7RsZGF-2">
          <mxGeometry x="130" y="88" width="20" height="20" as="geometry" />
        </mxCell>
        <mxCell id="sp_CgY-NGYcXEa7RsZGF-34" value="22" style="strokeWidth=1;shadow=0;dashed=0;align=center;html=1;shape=mxgraph.mockup.forms.rrect;rSize=0;strokeColor=#999999;fontColor=#999999;" vertex="1" parent="sp_CgY-NGYcXEa7RsZGF-2">
          <mxGeometry x="10" y="108" width="20" height="20" as="geometry" />
        </mxCell>
        <mxCell id="sp_CgY-NGYcXEa7RsZGF-35" value="23" style="strokeWidth=1;shadow=0;dashed=0;align=center;html=1;shape=mxgraph.mockup.forms.rrect;rSize=0;strokeColor=#999999;fontColor=#999999;" vertex="1" parent="sp_CgY-NGYcXEa7RsZGF-2">
          <mxGeometry x="30" y="108" width="20" height="20" as="geometry" />
        </mxCell>
        <mxCell id="sp_CgY-NGYcXEa7RsZGF-36" value="25" style="strokeWidth=1;shadow=0;dashed=0;align=center;html=1;shape=mxgraph.mockup.forms.rrect;rSize=0;strokeColor=#999999;fontColor=#999999;" vertex="1" parent="sp_CgY-NGYcXEa7RsZGF-2">
          <mxGeometry x="70" y="108" width="20" height="20" as="geometry" />
        </mxCell>
        <mxCell id="sp_CgY-NGYcXEa7RsZGF-37" value="26" style="strokeWidth=1;shadow=0;dashed=0;align=center;html=1;shape=mxgraph.mockup.forms.rrect;rSize=0;strokeColor=#999999;fontColor=#999999;" vertex="1" parent="sp_CgY-NGYcXEa7RsZGF-2">
          <mxGeometry x="90" y="108" width="20" height="20" as="geometry" />
        </mxCell>
        <mxCell id="sp_CgY-NGYcXEa7RsZGF-38" value="27" style="strokeWidth=1;shadow=0;dashed=0;align=center;html=1;shape=mxgraph.mockup.forms.rrect;rSize=0;strokeColor=#999999;fontColor=#999999;" vertex="1" parent="sp_CgY-NGYcXEa7RsZGF-2">
          <mxGeometry x="110" y="108" width="20" height="20" as="geometry" />
        </mxCell>
        <mxCell id="sp_CgY-NGYcXEa7RsZGF-39" value="28" style="strokeWidth=1;shadow=0;dashed=0;align=center;html=1;shape=mxgraph.mockup.forms.rrect;rSize=0;strokeColor=#999999;fontColor=#999999;" vertex="1" parent="sp_CgY-NGYcXEa7RsZGF-2">
          <mxGeometry x="130" y="108" width="20" height="20" as="geometry" />
        </mxCell>
        <mxCell id="sp_CgY-NGYcXEa7RsZGF-40" value="29" style="strokeWidth=1;shadow=0;dashed=0;align=center;html=1;shape=mxgraph.mockup.forms.rrect;rSize=0;strokeColor=#999999;fontColor=#999999;" vertex="1" parent="sp_CgY-NGYcXEa7RsZGF-2">
          <mxGeometry x="10" y="128" width="20" height="20" as="geometry" />
        </mxCell>
        <mxCell id="sp_CgY-NGYcXEa7RsZGF-41" value="30" style="strokeWidth=1;shadow=0;dashed=0;align=center;html=1;shape=mxgraph.mockup.forms.rrect;rSize=0;strokeColor=#999999;fontColor=#999999;" vertex="1" parent="sp_CgY-NGYcXEa7RsZGF-2">
          <mxGeometry x="30" y="128" width="20" height="20" as="geometry" />
        </mxCell>
        <mxCell id="sp_CgY-NGYcXEa7RsZGF-42" value="31" style="strokeWidth=1;shadow=0;dashed=0;align=center;html=1;shape=mxgraph.mockup.forms.rrect;rSize=0;strokeColor=#999999;fontColor=#999999;" vertex="1" parent="sp_CgY-NGYcXEa7RsZGF-2">
          <mxGeometry x="50" y="128" width="20" height="20" as="geometry" />
        </mxCell>
        <mxCell id="sp_CgY-NGYcXEa7RsZGF-43" value="1" style="strokeWidth=1;shadow=0;dashed=0;align=center;html=1;shape=mxgraph.mockup.forms.rrect;rSize=0;strokeColor=#999999;fontColor=#999999;fillColor=#ddeeff;" vertex="1" parent="sp_CgY-NGYcXEa7RsZGF-2">
          <mxGeometry x="70" y="128" width="20" height="20" as="geometry" />
        </mxCell>
        <mxCell id="sp_CgY-NGYcXEa7RsZGF-44" value="2" style="strokeWidth=1;shadow=0;dashed=0;align=center;html=1;shape=mxgraph.mockup.forms.rrect;rSize=0;strokeColor=#999999;fontColor=#999999;fillColor=#ddeeff;" vertex="1" parent="sp_CgY-NGYcXEa7RsZGF-2">
          <mxGeometry x="90" y="128" width="20" height="20" as="geometry" />
        </mxCell>
        <mxCell id="sp_CgY-NGYcXEa7RsZGF-45" value="3" style="strokeWidth=1;shadow=0;dashed=0;align=center;html=1;shape=mxgraph.mockup.forms.rrect;rSize=0;strokeColor=#999999;fontColor=#999999;fillColor=#ddeeff;" vertex="1" parent="sp_CgY-NGYcXEa7RsZGF-2">
          <mxGeometry x="110" y="128" width="20" height="20" as="geometry" />
        </mxCell>
        <mxCell id="sp_CgY-NGYcXEa7RsZGF-46" value="4" style="strokeWidth=1;shadow=0;dashed=0;align=center;html=1;shape=mxgraph.mockup.forms.rrect;rSize=0;strokeColor=#999999;fontColor=#999999;fillColor=#ddeeff;" vertex="1" parent="sp_CgY-NGYcXEa7RsZGF-2">
          <mxGeometry x="130" y="128" width="20" height="20" as="geometry" />
        </mxCell>
        <mxCell id="sp_CgY-NGYcXEa7RsZGF-47" value="5" style="strokeWidth=1;shadow=0;dashed=0;align=center;html=1;shape=mxgraph.mockup.forms.rrect;rSize=0;strokeColor=#999999;fontColor=#999999;fillColor=#ddeeff;" vertex="1" parent="sp_CgY-NGYcXEa7RsZGF-2">
          <mxGeometry x="10" y="148" width="20" height="20" as="geometry" />
        </mxCell>
        <mxCell id="sp_CgY-NGYcXEa7RsZGF-48" value="6" style="strokeWidth=1;shadow=0;dashed=0;align=center;html=1;shape=mxgraph.mockup.forms.rrect;rSize=0;strokeColor=#999999;fontColor=#999999;fillColor=#ddeeff;" vertex="1" parent="sp_CgY-NGYcXEa7RsZGF-2">
          <mxGeometry x="30" y="148" width="20" height="20" as="geometry" />
        </mxCell>
        <mxCell id="sp_CgY-NGYcXEa7RsZGF-49" value="7" style="strokeWidth=1;shadow=0;dashed=0;align=center;html=1;shape=mxgraph.mockup.forms.rrect;rSize=0;strokeColor=#999999;fontColor=#999999;fillColor=#ddeeff;" vertex="1" parent="sp_CgY-NGYcXEa7RsZGF-2">
          <mxGeometry x="50" y="148" width="20" height="20" as="geometry" />
        </mxCell>
        <mxCell id="sp_CgY-NGYcXEa7RsZGF-50" value="8" style="strokeWidth=1;shadow=0;dashed=0;align=center;html=1;shape=mxgraph.mockup.forms.rrect;rSize=0;strokeColor=#999999;fontColor=#999999;fillColor=#ddeeff;" vertex="1" parent="sp_CgY-NGYcXEa7RsZGF-2">
          <mxGeometry x="70" y="148" width="20" height="20" as="geometry" />
        </mxCell>
        <mxCell id="sp_CgY-NGYcXEa7RsZGF-51" value="9" style="strokeWidth=1;shadow=0;dashed=0;align=center;html=1;shape=mxgraph.mockup.forms.rrect;rSize=0;strokeColor=#999999;fontColor=#999999;fillColor=#ddeeff;" vertex="1" parent="sp_CgY-NGYcXEa7RsZGF-2">
          <mxGeometry x="90" y="148" width="20" height="20" as="geometry" />
        </mxCell>
        <mxCell id="sp_CgY-NGYcXEa7RsZGF-52" value="10" style="strokeWidth=1;shadow=0;dashed=0;align=center;html=1;shape=mxgraph.mockup.forms.rrect;rSize=0;strokeColor=#999999;fontColor=#999999;fillColor=#ddeeff;" vertex="1" parent="sp_CgY-NGYcXEa7RsZGF-2">
          <mxGeometry x="110" y="148" width="20" height="20" as="geometry" />
        </mxCell>
        <mxCell id="sp_CgY-NGYcXEa7RsZGF-53" value="11" style="strokeWidth=1;shadow=0;dashed=0;align=center;html=1;shape=mxgraph.mockup.forms.rrect;rSize=0;strokeColor=#999999;fontColor=#999999;fillColor=#ddeeff;" vertex="1" parent="sp_CgY-NGYcXEa7RsZGF-2">
          <mxGeometry x="130" y="148" width="20" height="20" as="geometry" />
        </mxCell>
        <mxCell id="sp_CgY-NGYcXEa7RsZGF-54" value="24" style="strokeWidth=1;shadow=0;dashed=0;align=center;html=1;shape=mxgraph.mockup.forms.rrect;rSize=0;strokeColor=#ff0000;fontColor=#ffffff;strokeWidth=2;fillColor=#008cff;" vertex="1" parent="sp_CgY-NGYcXEa7RsZGF-2">
          <mxGeometry x="50" y="108" width="20" height="20" as="geometry" />
        </mxCell>
        <mxCell id="sp_CgY-NGYcXEa7RsZGF-56" value="Choose..." style="html=1;shadow=0;dashed=0;shape=mxgraph.bootstrap.rrect;rSize=5;fillColor=none;strokeColor=#999999;align=left;spacing=15;fontSize=14;fontColor=#6C767D;" vertex="1" parent="I1cSbsmam4e711qpxHXn-1">
          <mxGeometry x="429" y="575" width="270" height="30" as="geometry" />
        </mxCell>
        <mxCell id="sp_CgY-NGYcXEa7RsZGF-57" value="" style="shape=triangle;direction=south;fillColor=#212529;strokeColor=none;perimeter=none;" vertex="1" parent="sp_CgY-NGYcXEa7RsZGF-56">
          <mxGeometry x="1" y="0.5" width="10" height="5" relative="1" as="geometry">
            <mxPoint x="-17" y="-2.5" as="offset" />
          </mxGeometry>
        </mxCell>
        <mxCell id="sp_CgY-NGYcXEa7RsZGF-58" value="Some example text that&#39;s free-flowing within the dropdown menu.&lt;br style=&quot;font-size: 14px&quot;&gt;&lt;br style=&quot;font-size: 14px&quot;&gt;And this is more example text." style="html=1;shadow=0;dashed=0;shape=mxgraph.bootstrap.rrect;rSize=5;strokeColor=#999999;strokeWidth=1;fillColor=#FFFFFF;fontColor=#6C767D;whiteSpace=wrap;align=left;verticalAlign=middle;spacingLeft=10;fontSize=14;spacing=10;" vertex="1" parent="I1cSbsmam4e711qpxHXn-1">
          <mxGeometry x="22.5" y="650" width="170" height="160" as="geometry" />
        </mxCell>
        <mxCell id="sp_CgY-NGYcXEa7RsZGF-59" value="Descripcion" style="fillColor=none;strokeColor=none;align=left;fontSize=14;fontColor=#212529;" vertex="1" parent="I1cSbsmam4e711qpxHXn-1">
          <mxGeometry x="22.5" y="620" width="390" height="30" as="geometry" />
        </mxCell>
        <mxCell id="sp_CgY-NGYcXEa7RsZGF-60" value="Finalizar" style="html=1;shadow=0;dashed=0;shape=mxgraph.bootstrap.rrect;rSize=5;strokeColor=none;strokeWidth=1;fillColor=#0085FC;fontColor=#FFFFFF;whiteSpace=wrap;align=left;verticalAlign=middle;spacingLeft=0;fontStyle=1;fontSize=14;spacing=5;" vertex="1" parent="I1cSbsmam4e711qpxHXn-1">
          <mxGeometry x="710" y="820" width="90" height="30" as="geometry" />
        </mxCell>
      </root>
    </mxGraphModel>
  </diagram>
  <diagram id="JMJKDhmAy1TSMccOzEaF" name="Page-7">
    <mxGraphModel dx="3140" dy="2000" grid="1" gridSize="10" guides="1" tooltips="1" connect="1" arrows="1" fold="1" page="1" pageScale="1" pageWidth="850" pageHeight="1100" math="0" shadow="0">
      <root>
        <mxCell id="0" />
        <mxCell id="1" parent="0" />
      </root>
    </mxGraphModel>
  </diagram>
</mxfile>
